<?xml version="1.0" encoding="UTF-8"?> <svg xmlns="http://www.w3.org/2000/svg" width="100" height="100" viewBox="0 0 100 100" fill="none"><path d="M50.2641 24.4246C50.1501 24.4246 50.0339 24.3904 49.9336 24.3197C49.6761 24.1374 49.6168 23.7819 49.7991 23.5243L50.059 23.1574C50.059 23.1574 50.0612 23.1551 50.0612 23.1528L50.5626 22.4509C51.08 21.7284 51.6406 20.9626 52.3084 20.2652C52.3472 20.2242 52.3905 20.1923 52.4361 20.1649C53.8354 18.622 54.9727 17.8357 55.8319 17.8152C56.992 17.8152 57.7919 18.3097 58.1064 19.1963C58.4118 20.0624 58.1361 21.0743 57.4523 21.6053C56.8301 22.0862 56.2809 22.2708 54.6559 22.8178C53.7602 23.1209 52.5204 23.538 50.729 24.1853C50.6151 24.3425 50.4418 24.4246 50.2641 24.4246Z" fill="#EF3E33"></path><path d="M53.1401 32.0273C52.698 32.0273 52.2308 31.87 51.7886 31.5555C51.1596 31.1088 50.7106 29.9579 50.4485 28.1255C50.428 28.0799 50.4121 28.032 50.403 27.9819C50.2594 27.1341 50.2297 26.2976 50.2115 25.5114L50.1933 24.7501C50.1933 24.7501 50.1933 24.7479 50.1933 24.7456L50.1887 24.504C50.1819 24.1462 50.1819 23.9297 50.1819 23.9297C50.1819 23.6835 50.3437 23.4647 50.5762 23.3895C50.8109 23.3166 51.0662 23.3986 51.212 23.5992C53.9971 27.444 54.6147 28.4901 54.952 29.518C55.1982 30.2701 54.8882 31.1795 54.2136 31.674C53.89 31.9088 53.523 32.0273 53.1401 32.0273Z" fill="#EF3E33"></path><path d="M60.8208 25.5983C59.9182 25.5983 58.7696 25.5755 57.2768 25.5345C57.0306 25.5276 56.8164 25.3635 56.748 25.1242C56.6774 24.8872 56.7685 24.632 56.9737 24.4952L57.6642 24.0394C57.6642 24.0371 57.6665 24.0371 57.6665 24.0371L58.3115 23.62C58.9793 23.1893 59.6972 22.7335 60.4835 22.3734C60.5313 22.3529 60.5792 22.3369 60.6248 22.3301C62.3067 21.5028 63.5215 21.2224 64.2576 21.4959C65.2103 21.8469 65.7618 22.5785 65.7299 23.4468C65.698 24.2901 65.1191 25.065 64.3534 25.2861C63.6309 25.4935 62.8218 25.5983 60.8208 25.5983Z" fill="#EF3E33"></path><path d="M33.3805 31.9634C32.8176 31.9634 32.2387 31.7196 31.8399 31.2751C31.2655 30.6324 31.2108 29.7345 31.6986 28.8707C32.2205 27.9454 33.8614 27.3505 36.1223 26.6144C36.8015 26.3933 37.4305 26.1882 37.8795 25.9968C38.1142 25.8965 38.3877 25.9626 38.545 26.1608C38.7068 26.3569 38.7159 26.6372 38.57 26.8469C35.9559 30.58 35.0693 31.3982 34.0734 31.8267C33.8569 31.9201 33.6198 31.9634 33.3805 31.9634Z" fill="#EF3E33"></path><path d="M66.5211 32.3624C66.2818 32.3624 66.047 32.3168 65.8282 32.2234C64.83 31.7949 63.9457 30.9745 61.3316 27.2436C61.1857 27.0339 61.1948 26.7536 61.3567 26.5576C61.5162 26.3593 61.7897 26.2932 62.0222 26.3935C62.4711 26.5849 63.1002 26.79 63.7793 27.0111C66.0402 27.7473 67.6811 28.3421 68.2031 29.2674C68.6885 30.1312 68.6361 31.0292 68.0595 31.6741C67.6606 32.1163 67.0817 32.3624 66.5211 32.3624Z" fill="#EF3E33"></path><path d="M49.708 24.331C49.5325 24.331 49.3593 24.2513 49.2476 24.0986C47.4471 23.4741 46.2004 23.073 45.3025 22.7835C43.6707 22.2593 43.1214 22.0793 42.4924 21.6075C41.8018 21.0856 41.5124 20.0782 41.8064 19.2099C42.1095 18.3142 42.9801 17.7604 44.0627 17.7969C45.0153 17.8037 46.2551 18.7951 47.4745 20.0942C47.5246 20.1215 47.5747 20.1557 47.618 20.2013C48.2995 20.8942 48.8693 21.6485 49.3935 22.3596L49.904 23.057C49.904 23.057 49.904 23.0593 49.9062 23.0593L50.0567 23.2644C50.0612 23.2712 50.0658 23.2781 50.0703 23.2826L50.1729 23.4262C50.3598 23.6792 50.3028 24.0393 50.0476 24.2239C49.9404 24.2946 49.8219 24.331 49.708 24.331Z" fill="#EF3E33"></path><path d="M46.914 31.968C46.5402 31.968 46.1801 31.8563 45.8611 31.6284C45.1819 31.1407 44.8583 30.2381 45.0976 29.4815C45.4212 28.4536 46.0229 27.3961 48.7578 23.5171C48.8991 23.312 49.1521 23.2299 49.3914 23.2983C49.6284 23.3712 49.788 23.5877 49.7925 23.8339V24.4059L49.7811 25.4133C49.772 26.1996 49.7515 27.036 49.6216 27.8838C49.6147 27.934 49.5988 27.9841 49.5783 28.0274C49.3413 29.8666 48.9082 31.0199 48.2815 31.4802C47.8393 31.8062 47.3676 31.968 46.914 31.968Z" fill="#EF3E33"></path><path d="M38.5382 25.6504C36.9885 25.6504 36.2797 25.557 35.6392 25.3815C34.8689 25.1695 34.2786 24.4038 34.2353 23.5605C34.192 22.6922 34.7344 21.9537 35.6825 21.5868C36.421 21.3133 37.6357 21.5709 39.3245 22.3754C39.3724 22.3822 39.4203 22.3982 39.4681 22.4187C40.259 22.7697 40.9837 23.2141 41.656 23.6357L42.3056 24.0437L42.3079 24.046L42.5175 24.1781L43.2582 24.4311C43.4064 24.4858 43.5636 24.6362 43.6252 24.7798C43.6867 24.9257 43.7232 25.1262 43.6594 25.2721C43.4588 25.7279 42.9688 25.6368 42.6247 25.5388C40.8082 25.6117 39.5069 25.6504 38.5382 25.6504Z" fill="#EF3E33"></path><path d="M41.2297 33.4333C40.9379 33.4333 40.6485 33.3649 40.375 33.2168C39.6297 32.8202 39.1876 31.9633 39.3221 31.177C39.5067 30.1012 39.967 28.9617 42.1869 24.6998C42.3008 24.4787 42.5401 24.3625 42.7863 24.3989C43.0279 24.4423 43.2193 24.6337 43.2558 24.8753C43.2558 24.8753 43.29 25.0941 43.3356 25.4542L43.4586 26.4638C43.5589 27.2911 43.6501 28.107 43.6318 28.9663C43.6318 29.0164 43.6227 29.0665 43.609 29.1121C43.6182 30.9878 43.3424 32.2026 42.7772 32.745C42.3031 33.1985 41.7607 33.4333 41.2297 33.4333Z" fill="#EF3E33"></path><path d="M20.5106 55.1189C19.9066 55.1189 19.403 54.6448 19.3733 54.034C18.8788 43.9194 21.6661 36.2457 27.8903 30.5753C28.1866 30.3246 34.3743 25.1306 39.8054 24.9733C40.733 24.481 43.3973 23.5079 49.9907 23.4486C50.6471 23.4326 51.1348 23.9477 51.1393 24.5768C51.1439 25.2058 50.6402 25.7209 50.0089 25.7277C42.7659 25.7938 40.2954 27.0131 39.9171 27.1111C39.908 27.1111 37.5195 27.6307 35.3589 28.6928C32.4075 30.1423 29.431 32.2596 29.3945 32.2892C23.7332 37.4445 21.1898 44.5302 21.6501 53.9224C21.6798 54.5491 21.1966 55.087 20.5676 55.1143C20.5493 55.1189 20.5288 55.1189 20.5106 55.1189Z" fill="#EF3E33"></path><path d="M79.489 55.1186C79.4708 55.1186 79.4502 55.1186 79.432 55.1163C78.803 55.0867 78.3198 54.5511 78.3494 53.9244C78.8098 44.5322 76.2641 37.4465 70.5732 32.2639C70.5572 32.2502 67.6035 30.2628 64.6407 28.9067C61.9787 27.6874 58.9019 26.8875 58.8085 26.8168L59.1868 27.0197C59.1823 27.0197 57.1972 25.7981 49.9907 25.732C49.3617 25.7251 48.8557 25.2101 48.8603 24.581C48.8648 23.9566 49.3753 23.4529 49.9998 23.4529C50.0021 23.4529 50.0066 23.4529 50.0089 23.4529C56.6023 23.5121 59.2666 24.4853 60.1942 24.9776C65.623 25.1349 71.8107 30.3289 72.0774 30.5523C78.3335 36.25 81.1208 43.9237 80.6263 54.0383C80.5966 54.6423 80.0929 55.1186 79.489 55.1186Z" fill="#EF3E33"></path><path d="M40.8058 53.7268C40.1767 53.7268 39.6662 53.2163 39.6662 52.5872L39.6617 52.2818C39.6548 51.9742 39.6503 51.6824 39.6867 51.3702C39.6799 42.3609 44.2107 35.1978 49.9951 35.1978C55.7885 35.1978 60.3239 42.3609 60.3239 51.5024C60.3513 51.6733 60.3444 51.981 60.333 52.291L60.3239 52.626C60.3239 53.255 59.8134 53.7655 59.1844 53.7655" fill="#EF3E33"></path><path d="M74.5637 53.765L62.5347 53.7627C62.2133 53.7627 61.9079 53.626 61.6914 53.3913C61.4749 53.1542 61.3701 52.8374 61.3997 52.5161C61.9125 47.0349 60.2032 43.0533 60.1849 43.0123C60.0527 42.7091 60.0573 42.365 60.2009 42.0664C61.4498 39.45 63.558 38.176 66.6439 38.176C71.8106 38.176 75.7056 44.3888 75.7056 52.6255C75.7056 52.9286 75.5848 53.218 75.3728 53.4323C75.1609 53.6465 74.8669 53.765 74.5637 53.765Z" fill="#EF3E33"></path><path d="M25.267 53.765C24.9661 53.765 24.6744 53.6442 24.4602 53.4323C24.246 53.2203 24.1274 52.9286 24.1274 52.6255C24.1274 44.3888 28.0224 38.176 33.1891 38.176C36.275 38.176 38.3832 39.45 39.6321 42.0664C39.7757 42.3627 39.778 42.7091 39.6481 43.0123C39.6298 43.051 37.9228 47.069 38.4333 52.5161C38.4629 52.8374 38.3558 53.1519 38.1416 53.3913C37.9251 53.6283 37.6197 53.7627 37.2983 53.7627L25.267 53.765Z" fill="#EF3E33"></path><path d="M20.7317 60.678H79.2041C78.5979 62.8955 77.9483 64.8624 77.2578 66.6515H22.6188C21.9031 64.8578 21.2536 62.9092 20.7317 60.678Z" fill="#EF3E33"></path><path d="M49.0584 82.2018L49.9996 82.1973C63.1295 82.1836 70.9787 80.6384 76.2958 68.9307H23.626C30.1556 82.2565 42.0912 82.2337 49.0584 82.2018ZM51.0252 77.8898L51.4264 76.9462C51.6725 76.3696 52.3448 76.1007 52.9214 76.3446C53.5003 76.5907 53.7715 77.2585 53.5231 77.8396L53.122 78.7832C52.9374 79.2139 52.5158 79.476 52.0736 79.476C51.9255 79.476 51.7728 79.4464 51.6269 79.3849C51.0503 79.1387 50.7791 78.471 51.0252 77.8898ZM47.0756 76.3468C47.6522 76.103 48.3245 76.3719 48.5706 76.9485L48.9718 77.8921C49.2179 78.4732 48.949 79.141 48.3701 79.3871C48.2242 79.4487 48.0738 79.4783 47.9234 79.4783C47.4812 79.4783 47.0596 79.2185 46.875 78.7855L46.4739 77.8419C46.2255 77.2608 46.4967 76.593 47.0756 76.3468Z" fill="#EF3E33"></path><path d="M81.8775 57.4827C81.7932 57.7197 81.4832 58.0456 80.8656 58.2462C80.5442 58.351 80.1363 58.3396 79.7146 58.392H20.146C20.1164 58.392 20.0845 58.3943 20.0525 58.3966C18.9449 58.3761 18.0925 57.8131 18.0925 57.3277C18.0925 56.8331 18.9791 56.2588 20.1209 56.2588H79.685C79.7488 56.2702 79.8149 56.2747 79.881 56.2747C80.7243 56.2747 81.4946 56.5733 81.7977 57.0154C81.7977 57.0154 81.7977 57.0154 81.7977 57.0177C81.9436 57.232 81.914 57.3847 81.8775 57.4827Z" fill="#EF3E33"></path></svg> 