<?xml version="1.0" encoding="UTF-8"?> <svg xmlns="http://www.w3.org/2000/svg" width="30" height="30" viewBox="0 0 30 30" fill="none"><g clip-path="url(#clip0)"><path fill-rule="evenodd" clip-rule="evenodd" d="M15.5545 13.2082C15.553 12.6945 15.5424 12.1763 15.4666 11.6703C15.3454 10.8566 15.1273 10.0597 14.7909 9.30815C14.5879 8.85512 14.3242 8.42785 14.0666 8.00057C13.9757 7.84906 14.0091 7.77482 14.1288 7.68088C14.3545 7.5036 14.4348 7.26118 14.3515 7.04148C14.2742 6.83694 14.0212 6.68391 13.7636 6.68391C13.4833 6.68391 13.203 6.68391 12.9227 6.68391V6.21118C13.2773 6.20967 13.6333 6.20512 13.9863 6.17633C14.2227 6.15815 14.3136 6.02785 14.3151 5.8036C14.3166 5.44603 14.3197 5.08845 14.3182 4.73088C14.3182 4.45057 14.1909 4.30967 13.9121 4.28088C13.7848 4.26724 13.6545 4.2627 13.5257 4.2627C11.9439 4.26421 10.3621 4.26421 8.7818 4.26573C7.19998 4.26421 5.61968 4.26421 4.03786 4.2627C3.90907 4.2627 3.78029 4.26724 3.6515 4.28088C3.37271 4.30967 3.24544 4.45057 3.24544 4.73088C3.24392 5.08845 3.24695 5.44603 3.24847 5.8036C3.24998 6.02785 3.34089 6.15663 3.57726 6.17633C3.93029 6.20512 4.28635 6.20967 4.64089 6.21118V6.68391C4.36059 6.68391 4.08029 6.68391 3.79998 6.68391C3.54241 6.68391 3.28938 6.83694 3.2121 7.04148C3.12877 7.26118 3.20756 7.5036 3.43483 7.68088C3.55453 7.77482 3.58938 7.84906 3.49695 8.00057C3.23938 8.42633 2.97574 8.8536 2.77271 9.30815C2.43635 10.0597 2.21665 10.8566 2.09544 11.6703C2.01968 12.1763 2.00907 12.696 2.00756 13.2082C1.99998 15.5854 2.01059 17.9612 1.99998 20.3369C1.99695 21.0324 2.1515 21.6991 2.32119 22.3627C2.42726 22.7763 2.57271 23.1824 2.72877 23.5794C3.01059 24.2945 3.35453 24.9733 3.96665 25.4778C4.18332 25.6566 4.42726 25.7294 4.69998 25.7324C5.16513 25.7354 5.63029 25.7369 6.09544 25.7369C6.99089 25.7369 7.88483 25.7369 8.78029 25.7369C9.67574 25.7369 10.5697 25.7369 11.4651 25.7369C11.9303 25.7369 12.3954 25.7354 12.8606 25.7324C13.1333 25.7309 13.3773 25.6566 13.5939 25.4778C14.206 24.9733 14.55 24.2945 14.8318 23.5794C14.9894 23.1824 15.1333 22.7763 15.2394 22.3627C15.4106 21.6991 15.5636 21.0324 15.5606 20.3369C15.553 17.9612 15.5636 15.5854 15.5545 13.2082ZM6.13938 6.68391V6.2127C7.01968 6.2127 7.89998 6.2127 8.7818 6.2127C9.6621 6.2127 10.5424 6.2127 11.4242 6.2127V6.68391C10.5439 6.68391 9.66362 6.68391 8.7818 6.68391C7.9015 6.68391 7.01968 6.68391 6.13938 6.68391ZM28 24.8445C28 25.3354 27.5985 25.7369 27.1076 25.7369H18.0606C17.5697 25.7369 17.1682 25.3354 17.1682 24.8445L18.1136 6.76118C18.1136 6.27027 18.5151 5.86876 19.006 5.86876H23.4545L24.65 7.06421L25.2227 6.49148L25.0879 6.35663C25.0182 6.28694 25.0182 6.1733 25.0879 6.1036L25.6651 5.52633C25.7348 5.45663 25.8485 5.45663 25.9182 5.52633L27.8348 7.44451C27.9045 7.51421 27.9045 7.62785 27.8348 7.69754L27.2576 8.27482C27.1879 8.34451 27.0742 8.34451 27.0045 8.27482L26.8697 8.13997L26.297 8.7127L27.497 9.9127L28 24.8445ZM13.9318 19.1475C13.9318 19.6385 13.5303 20.04 13.0394 20.04H4.52423C4.03332 20.04 3.6318 19.6385 3.6318 19.1475V14.6324C3.6318 14.1415 4.03332 13.74 4.52423 13.74H13.0379C13.5288 13.74 13.9303 14.1415 13.9303 14.6324V19.1475H13.9318ZM26.456 7.92785L26.1197 8.26421L25.0954 7.23997L25.4318 6.9036L26.456 7.92785Z" fill="#EF3E33"></path></g><defs><clipPath id="clip0"><rect width="26" height="21.4742" fill="white" transform="translate(2 4.2627)"></rect></clipPath></defs></svg> 