<?xml version="1.0" encoding="UTF-8"?> <svg xmlns="http://www.w3.org/2000/svg" width="30" height="30" viewBox="0 0 30 30" fill="none"><path d="M24.9946 22.8942C23.4609 22.8052 21.9905 22.4875 20.2794 21.8649C20.5202 20.4036 19.9371 18.8279 18.7456 17.8875C18.1879 17.4428 17.5795 17.087 16.9584 16.7947L16.388 15.7908C15.9317 14.9903 15.2346 14.3549 14.4233 13.9991C13.3206 13.5163 12.0657 13.2748 10.6968 13.2748C9.54329 13.2748 8.33912 13.44 7.08426 13.7831C6.94483 13.8212 6.79272 13.8594 6.64062 13.9102C5.96882 13.2621 5.38575 12.6013 4.86606 11.877C3.31966 9.71681 3.9661 6.45106 7.59127 5.91736C10.3418 5.51073 13.1938 6.18421 15.7162 7.17537C13.029 6.92123 10.1264 7.36598 8.52926 9.39913C11.1024 9.58974 12.5727 8.89084 14.867 8.59858C16.2866 8.40797 17.6049 8.43338 18.6823 8.53504C18.9738 8.68753 19.2527 8.84001 19.5188 8.97979C20.3554 9.43725 21.268 9.97095 22.168 10.5809C19.3921 10.2632 16.3373 10.6571 14.6768 12.7792C17.2499 12.9698 18.7203 12.271 21.0145 11.966C22.0539 11.8262 23.0426 11.8008 23.9172 11.8389C24.6904 12.4489 25.4383 13.1223 26.1227 13.8594C24.044 13.9483 22.0539 14.571 20.8244 16.1466C23.3975 16.3373 24.8679 15.6384 27.1621 15.3334C27.2128 15.3334 27.2635 15.3207 27.3269 15.308C27.7959 15.956 28.2015 16.6549 28.5437 17.3919C30.0268 20.7466 27.6438 23.0466 24.9946 22.8942Z" fill="#EF3E33"></path><path d="M18.1499 18.6497C16.3373 17.1884 13.8656 16.7437 11.7234 16.7437C9.58129 16.7437 7.10959 17.1884 5.297 18.637C3.52244 20.0475 3.49709 23.3514 6.45046 23.9232C7.88279 24.2028 10.5446 24.2028 11.7234 24.2028C12.9023 24.2028 15.5768 24.2028 16.9964 23.9232C19.9371 23.3514 19.9118 20.0602 18.1499 18.6497ZM17.8076 21.7757C17.6809 22.2713 17.3006 22.9193 16.1852 23.1227C14.943 23.3514 12.5093 23.3514 11.4826 23.3514C10.4432 23.3514 8.02222 23.3514 6.78002 23.1227C5.66459 22.9066 5.28433 22.2713 5.15757 21.7757C4.95476 20.9624 5.297 20.0221 5.99415 19.4884C7.65463 18.2177 9.89818 17.9381 11.4953 17.9381C13.0924 17.9381 15.3359 18.205 16.9964 19.4884C17.6682 20.0221 18.0104 20.9624 17.8076 21.7757Z" fill="#EF3E33"></path><path d="M14.0431 14.8888C11.9136 13.9484 9.41654 14.1644 7.35045 14.7109C5.27168 15.27 3.00278 16.3374 1.62116 18.2053C0.366293 19.9081 1.01274 22.8308 3.5605 23.0214C3.42107 22.7545 3.30699 22.4622 3.23094 22.1446C3.21826 22.1192 3.21826 22.081 3.20559 22.0429C2.73659 21.8777 2.45774 21.56 2.29296 21.2678C1.88734 20.5307 1.97607 19.5396 2.50844 18.8407C3.77598 17.1761 5.8801 16.3374 7.4265 15.9307C8.80812 15.5622 10.7601 15.27 12.5347 15.791C13.46 15.8418 14.5121 15.9689 15.5641 16.2738C15.2092 15.6766 14.6895 15.181 14.0431 14.8888Z" fill="#EF3E33"></path></svg> 