<?xml version="1.0" encoding="UTF-8"?> <svg xmlns="http://www.w3.org/2000/svg" width="30" height="30" viewBox="0 0 30 30" fill="none"><g clip-path="url(#clip0)"><path fill-rule="evenodd" clip-rule="evenodd" d="M5.61731 22.2069C5.68502 22.2238 5.75168 22.245 5.82045 22.2566C6.04582 22.2968 6.12411 22.3508 6.35159 22.3412C6.48279 22.336 6.61187 22.447 6.74307 22.4449C6.87109 22.4428 7.00017 22.4513 7.12819 22.4566C7.3271 22.464 7.52602 22.4756 7.72493 22.4809C8.03176 22.4894 8.33965 22.4978 8.64648 22.4978C8.8327 22.4978 9.01891 22.4798 9.20513 22.4693C9.34902 22.4619 9.49291 22.4576 9.63681 22.4449C9.79869 22.4301 9.95951 22.41 10.1214 22.3899C10.4028 22.3539 10.6843 22.3211 10.9646 22.2746C11.2101 22.2344 11.4524 22.1815 11.6958 22.1286C11.8132 22.1032 11.9275 22.0651 12.0428 22.0334C12.1877 21.9931 12.3338 21.9529 12.4787 21.9117C12.5739 21.8852 12.6702 21.8609 12.7644 21.8302C12.8956 21.7868 13.0247 21.7392 13.1548 21.6937C13.2045 21.6768 13.2564 21.663 13.3061 21.644C13.487 21.5731 13.6679 21.5022 13.8478 21.4282C14.1282 21.3128 14.4086 21.2007 14.6847 21.0769C14.9143 20.9743 15.1386 20.8589 15.364 20.7468C15.7163 20.5711 16.0676 20.3913 16.421 20.2178C16.7013 20.0802 16.9828 19.9448 17.2695 19.8199C17.4483 19.7427 17.6345 19.6834 17.8208 19.6242C17.9773 19.5745 18.1361 19.5269 18.2979 19.4941C18.5963 19.4348 18.8978 19.4073 19.1983 19.4782C19.3147 19.5057 19.4396 19.5247 19.5411 19.5819C19.7422 19.694 19.9326 19.8273 20.1241 19.9575C20.2468 20.0411 20.3601 20.1384 20.4838 20.222C20.6299 20.3204 20.7864 20.3976 20.9578 20.4526C21.2499 20.5457 21.5429 20.5584 21.8434 20.5256C22.0371 20.5045 22.2148 20.4484 22.364 20.3204C22.4645 20.2347 22.5386 20.1246 22.5862 20.003C22.7089 19.6866 22.7851 19.3576 22.7861 19.0169C22.7872 18.8063 22.7629 18.5968 22.7131 18.3916C22.6761 18.2382 22.6475 18.0826 22.6179 17.9271C22.5841 17.7493 22.5407 17.5727 22.5269 17.3938C22.5026 17.0817 22.5248 16.7717 22.6549 16.4786C22.7131 16.3464 22.7777 16.2162 22.8285 16.0808C22.8972 15.8946 22.8327 15.8438 22.7026 15.7613C22.5777 15.6819 22.4359 15.6237 22.2963 15.5719C22.1354 15.5126 21.9704 15.464 21.8043 15.4248C21.5789 15.3709 21.3493 15.355 21.1187 15.392C20.979 15.4143 20.8383 15.4322 20.6997 15.4576C20.5632 15.483 20.4288 15.5222 20.2923 15.5444C20.1442 15.5687 19.995 15.5899 19.8448 15.5941C19.6787 15.5994 19.5104 15.5973 19.3465 15.5751C19.1412 15.5476 18.937 15.5052 18.737 15.4534C18.5836 15.4132 18.4302 15.3603 18.2895 15.2894C18.1339 15.21 17.9932 15.1032 17.8451 15.009C17.6832 14.9064 17.5806 14.7487 17.4705 14.6006C17.4102 14.5191 17.3732 14.4197 17.3309 14.3255C17.2251 14.0885 17.1902 13.8335 17.1468 13.5796C17.1267 13.4622 17.0865 13.3468 17.0537 13.2315C17.023 13.1225 16.9913 13.0136 16.9574 12.9056C16.9373 12.8422 16.914 12.7776 16.8833 12.7184C16.75 12.4581 16.6209 12.1957 16.477 11.9418C16.3966 11.8 16.2972 11.6677 16.1935 11.5408C16.0676 11.3863 15.93 11.2392 15.7935 11.0932C15.6772 10.9705 15.5587 10.8488 15.4328 10.7356C15.3026 10.6192 15.163 10.5113 15.0244 10.4034C14.8762 10.288 14.727 10.1727 14.5726 10.0648C14.4583 9.98438 14.3366 9.91667 14.2181 9.84367C14.1166 9.78124 14.0171 9.71564 13.9134 9.65745C13.7208 9.55059 13.5262 9.44478 13.3304 9.34427C13.1675 9.26068 13.0014 9.18027 12.8342 9.10515C12.63 9.01416 12.4237 8.92846 12.2174 8.84382C11.9909 8.75177 11.7645 8.65972 11.5349 8.57613C11.2916 8.48726 11.0429 8.41214 10.7975 8.32749C10.6113 8.26401 10.4187 8.21217 10.2452 8.12435C9.91296 7.95718 9.53629 7.95083 9.17656 7.86195C8.92898 7.80059 8.71949 7.74451 8.46344 7.73393C8.34917 7.7297 8.15132 7.75298 8.03811 7.74451C8.02118 7.74345 8.07937 7.60273 8.05821 7.61755C8.09207 7.6313 8.12487 7.64717 8.15872 7.65881C8.4973 7.77625 8.80519 7.94871 9.08663 8.17196C9.29189 8.3349 9.47704 8.51582 9.64633 8.71685C9.87593 8.98771 10.0748 9.27761 10.2357 9.59397C10.3108 9.74209 10.3721 9.89763 10.4356 10.051C10.4906 10.1833 10.5457 10.3156 10.5922 10.452C10.6356 10.579 10.6705 10.7091 10.7023 10.8393C10.753 11.0509 10.8112 11.2625 10.8409 11.4783C10.8789 11.7651 10.9012 12.055 10.9128 12.3438C10.9213 12.5597 10.9107 12.7766 10.8948 12.9924C10.8758 13.2558 10.8483 13.5193 10.8123 13.7806C10.7858 13.9795 10.7351 14.1742 10.7065 14.3721C10.6885 14.4948 10.6938 14.6218 10.6843 14.7456C10.6716 14.9212 10.6631 15.0979 10.6388 15.2714C10.6007 15.537 10.5637 15.8036 10.5023 16.0639C10.4356 16.3527 10.3478 16.6363 10.2589 16.9198C10.2018 17.1018 10.133 17.2817 10.0569 17.4563C9.97538 17.6425 9.8791 17.8224 9.78599 18.0033C9.70876 18.1514 9.63258 18.2995 9.5437 18.4402C9.43155 18.6201 9.30987 18.7947 9.1882 18.9693C9.09615 19.1026 9.00093 19.2348 8.90147 19.3629C8.82 19.4687 8.73218 19.5681 8.64331 19.6686C8.51634 19.8136 8.38938 19.9585 8.25818 20.0993C8.182 20.1807 8.09947 20.2558 8.01801 20.332C7.86882 20.4727 7.71541 20.6082 7.57151 20.7552C7.47735 20.8526 7.39905 20.9658 7.31123 21.0695C7.2541 21.1372 7.19168 21.2007 7.13031 21.2663C7.02133 21.3827 6.9187 21.5054 6.80232 21.6144C6.68593 21.7233 6.56002 21.8249 6.42989 21.9191C6.29975 22.0133 6.16008 22.0958 6.02254 22.1804C5.86278 22.2788 5.83738 22.1487 5.65328 22.1815C5.64164 22.1836 5.63001 22.1889 5.61731 22.1931C5.61837 22.1952 5.61837 22.2016 5.61731 22.2069Z" fill="#EF3E33"></path><path fill-rule="evenodd" clip-rule="evenodd" d="M1.46447 18.7684C1.41263 18.6298 1.37348 18.4848 1.33328 18.342C1.28778 18.179 1.23911 18.0171 1.20525 17.8521C1.16399 17.6542 1.13225 17.4543 1.10262 17.2543C1.07723 17.0871 1.05607 16.92 1.04126 16.7517C1.02856 16.6089 1.02327 16.465 1.01904 16.3211C1.01163 16.0778 0.994704 15.8333 1.00317 15.59C1.01692 15.2197 1.04232 14.8494 1.07512 14.4801C1.09628 14.2368 1.13119 13.9934 1.17563 13.7532C1.23382 13.4411 1.30154 13.1301 1.37666 12.8211C1.49304 12.3429 1.64328 11.8742 1.83056 11.4192C1.92578 11.1875 2.03476 10.9611 2.1448 10.7368C2.24531 10.5326 2.349 10.3284 2.46644 10.1326C2.62515 9.86705 2.79232 9.60678 2.99863 9.37401C3.11925 9.23858 3.22611 9.09045 3.35202 8.96031C3.50544 8.80266 3.66414 8.64925 3.83449 8.50959C3.99319 8.37839 4.16565 8.26306 4.33917 8.14985C4.44392 8.08108 4.55925 8.02924 4.67246 7.97422C4.80683 7.90862 4.93908 7.83561 5.07874 7.788C5.27448 7.7224 5.47551 7.67373 5.67654 7.62612C5.80456 7.59544 5.93576 7.57322 6.06695 7.56052C6.20238 7.54783 6.33993 7.55206 6.47642 7.54677C6.73775 7.53619 6.9938 7.56687 7.2509 7.61343C7.55668 7.66844 7.86033 7.73193 8.14495 7.86524C8.27932 7.92766 8.41792 7.98268 8.54383 8.05886C8.7639 8.19217 8.97445 8.3403 9.15009 8.53286C9.27388 8.66829 9.41142 8.7942 9.52357 8.93915C9.64737 9.09786 9.76058 9.26714 9.85897 9.44278C9.97642 9.65227 10.0727 9.8734 10.1764 10.0903C10.2028 10.1464 10.2208 10.2056 10.242 10.2638C10.2875 10.3897 10.3372 10.5135 10.3764 10.6405C10.4123 10.7558 10.4377 10.8754 10.4663 10.9939C10.4938 11.1124 10.5202 11.2319 10.5446 11.3515C10.6017 11.6319 10.6366 11.9154 10.6366 12.2022C10.6366 12.3757 10.6472 12.5481 10.6398 12.7216C10.6335 12.8931 10.6155 13.0634 10.5933 13.2327C10.5594 13.4972 10.5192 13.7617 10.48 14.0252C10.4663 14.1183 10.443 14.2114 10.4356 14.3055C10.424 14.4568 10.4293 14.6092 10.4155 14.7605C10.3933 14.9922 10.3679 15.2229 10.3298 15.4525C10.2917 15.6831 10.2452 15.9148 10.1859 16.1412C10.1076 16.4407 10.0198 16.738 9.88966 17.0215C9.82512 17.1622 9.7775 17.3104 9.71085 17.45C9.54368 17.8002 9.35535 18.1388 9.13951 18.4605C8.94906 18.744 8.75015 19.0212 8.52161 19.2752C8.3957 19.4148 8.2772 19.5608 8.1513 19.7005C8.07723 19.783 7.99471 19.8592 7.91535 19.9375C7.79156 20.0592 7.66565 20.1798 7.54186 20.3025C7.46674 20.3776 7.39056 20.4517 7.31967 20.5321C7.20435 20.6622 7.09643 20.7977 6.98004 20.9278C6.90916 21.0072 6.83086 21.0781 6.75574 21.1532C6.68591 21.222 6.61714 21.2928 6.54413 21.3595C6.49652 21.4029 6.44256 21.4399 6.39071 21.4791C6.2775 21.5637 6.16853 21.6526 6.05003 21.7288C5.91036 21.8187 5.76012 21.8906 5.59507 21.9245C5.45646 21.9531 5.31786 21.9954 5.17714 22.0007C5.03219 22.007 4.88512 21.9859 4.74123 21.9615C4.4873 21.9171 4.25453 21.8102 4.03763 21.6727C3.88104 21.5732 3.73186 21.4632 3.58691 21.3479C3.45888 21.2452 3.34038 21.1299 3.21977 21.0199C3.14676 20.9543 3.08116 20.8791 3.00392 20.8199C2.90658 20.7448 2.79443 20.6866 2.70027 20.6083C2.58282 20.5109 2.47385 20.403 2.36593 20.2951C2.28657 20.2158 2.20405 20.1364 2.13845 20.0465C2.02206 19.8846 1.91837 19.7132 1.80834 19.546C1.66444 19.2984 1.56287 19.0339 1.46447 18.7684ZM8.72581 9.35602C8.56393 9.13066 8.36185 8.9455 8.13966 8.78362C8.01692 8.69369 7.8889 8.60904 7.75136 8.54556C7.60217 8.47573 7.44452 8.42283 7.28476 8.37945C7.11759 8.33395 6.94724 8.29692 6.77478 8.27788C6.54307 8.25142 6.3103 8.24084 6.07648 8.2546C5.86804 8.2673 5.66384 8.29798 5.45964 8.34771C5.10096 8.43552 4.76345 8.57095 4.45238 8.76563C4.28733 8.86826 4.13603 8.99311 3.98367 9.11373C3.87575 9.19943 3.771 9.29042 3.67261 9.38776C3.57103 9.48828 3.47369 9.5962 3.3827 9.70729C3.24939 9.86917 3.11396 10.0311 2.99863 10.2056C2.81242 10.486 2.63467 10.7738 2.49712 11.0827C2.36169 11.3864 2.22838 11.6901 2.10882 12.0001C1.94906 12.4106 1.82632 12.8338 1.73851 13.2665C1.68243 13.5437 1.62636 13.8231 1.58298 14.1045C1.54489 14.3489 1.51738 14.5954 1.49727 14.842C1.474 15.135 1.45072 15.4281 1.45178 15.7223C1.45178 16.0312 1.47506 16.3412 1.49833 16.6491C1.51209 16.8395 1.53854 17.03 1.56816 17.2183C1.59673 17.3971 1.63165 17.5759 1.67185 17.7526C1.711 17.9251 1.74909 18.0997 1.80728 18.2668C1.92049 18.5885 2.04851 18.9048 2.23155 19.1958C2.30985 19.3196 2.38285 19.4466 2.47173 19.5619C2.54791 19.6613 2.64207 19.7481 2.73095 19.838C2.86109 19.9692 3.00921 20.075 3.1658 20.1734C3.23035 20.2136 3.27902 20.2803 3.33509 20.3343C3.43561 20.4316 3.53189 20.5363 3.63981 20.6242C3.77206 20.731 3.91172 20.8294 4.0535 20.9236C4.31484 21.096 4.60051 21.2093 4.91475 21.2272C5.10943 21.2378 5.29987 21.2018 5.48821 21.1352C5.65009 21.0781 5.78975 20.9881 5.93258 20.9014C6.0733 20.8157 6.18334 20.694 6.30396 20.585C6.41611 20.4845 6.52509 20.3787 6.62772 20.2687C6.71236 20.1777 6.78431 20.075 6.86683 19.9819C6.96312 19.874 7.06257 19.7682 7.16414 19.6645C7.3038 19.5217 7.45087 19.3852 7.58736 19.2381C7.7503 19.0635 7.909 18.8858 8.06136 18.7028C8.16505 18.5779 8.25922 18.4457 8.34915 18.3113C8.47294 18.1272 8.59673 17.942 8.70677 17.7484C8.83056 17.5294 8.94377 17.304 9.04851 17.0765C9.12681 16.9073 9.18923 16.7295 9.25272 16.5528C9.3818 16.1984 9.46961 15.8333 9.53098 15.462C9.57859 15.1774 9.61351 14.8917 9.61774 14.6039C9.62091 14.3838 9.67487 14.1733 9.70556 13.9585C9.73836 13.731 9.77116 13.5025 9.79126 13.2739C9.80925 13.0729 9.81454 12.8698 9.81454 12.6677C9.81454 12.5174 9.80501 12.3661 9.78385 12.217C9.74576 11.9472 9.70238 11.6774 9.65054 11.4097C9.61774 11.2372 9.57965 11.0626 9.52146 10.8965C9.39978 10.5516 9.28446 10.2035 9.0866 9.89033C9.07285 9.86494 9.05063 9.83425 9.04005 9.81838C8.91309 9.64487 8.85172 9.5306 8.72581 9.35602Z" fill="#EF3E33"></path><path fill-rule="evenodd" clip-rule="evenodd" d="M23.0623 19.602C23.1289 19.5999 23.1914 19.5957 23.2538 19.5957C23.5014 19.5957 23.7447 19.6253 23.9733 19.7237C24.1076 19.7819 24.2378 19.8507 24.3679 19.9184C24.4102 19.9406 24.4483 19.9724 24.4843 20.0041C24.4959 20.0136 24.498 20.039 24.497 20.057C24.4875 20.2813 24.4854 20.5035 24.516 20.7278C24.5414 20.9151 24.5763 21.1013 24.6515 21.2716C24.7361 21.461 24.8303 21.6483 24.9858 21.7975C25.1138 21.9213 25.2503 22.026 25.4143 22.0959C25.6344 22.1911 25.8608 22.2355 26.101 22.2112C26.2237 22.1985 26.3412 22.172 26.4597 22.1371C26.6194 22.0906 26.7612 22.0133 26.8871 21.916C27.1019 21.7499 27.2595 21.5393 27.3473 21.2748C27.4098 21.0875 27.4373 20.8982 27.4288 20.7045C27.4235 20.5786 27.3971 20.4527 27.3717 20.3289C27.3272 20.1099 27.2394 19.9057 27.1347 19.7089C27.1304 19.7015 27.1304 19.693 27.1273 19.6825C27.2045 19.6613 27.2786 19.6391 27.3537 19.6222C27.5621 19.5745 27.7621 19.5026 27.9557 19.4127C28.1525 19.3206 28.3398 19.2137 28.5038 19.0709C28.635 18.9577 28.744 18.8254 28.8307 18.672C28.9418 18.4773 28.9958 18.271 28.9979 18.0499C29 17.906 28.9746 17.7663 28.9407 17.6256C28.8974 17.4426 28.8117 17.2818 28.7154 17.1262C28.6477 17.0172 28.5683 16.9136 28.4816 16.8194C28.3789 16.7072 28.27 16.5983 28.1515 16.5041C27.8901 16.2957 27.5917 16.1613 27.2606 16.1116C27.0723 16.083 26.886 16.0946 26.6977 16.1433C26.4977 16.1951 26.3242 16.2851 26.1729 16.4173C26.0428 16.5305 25.9222 16.6554 25.8386 16.8088C25.7434 16.9834 25.646 17.158 25.5381 17.3537C25.2863 17.3611 25.008 17.3727 24.7298 17.3749C24.6165 17.3759 24.5023 17.3601 24.3891 17.3452C24.1648 17.3167 23.9383 17.2913 23.7162 17.249C23.531 17.213 23.349 17.1569 23.167 17.1061C23.0866 17.0839 23.0083 17.0522 22.9269 17.031C22.9142 17.0278 22.8771 17.0564 22.8771 17.0701C22.8803 17.214 22.8835 17.359 22.8972 17.5029C22.9099 17.6362 22.9322 17.7695 22.9586 17.9018C22.9893 18.0562 23.0411 18.2065 23.0644 18.362C23.0983 18.5853 23.1226 18.8106 23.1353 19.0349C23.1491 19.2233 23.1205 19.4095 23.0623 19.602Z" fill="#EF3E33"></path><path fill-rule="evenodd" clip-rule="evenodd" d="M8.69089 10.8351C8.52689 10.5918 8.37242 10.3569 8.2116 10.1273C8.10579 9.97704 7.99787 9.82679 7.87832 9.68925C7.76828 9.56228 7.64343 9.44907 7.5207 9.3348C7.43711 9.25757 7.35141 9.18139 7.2583 9.11579C7.04246 8.96449 6.80864 8.85022 6.54942 8.7952C6.38119 8.75923 6.21084 8.74759 6.04156 8.76663C5.87227 8.78568 5.70827 8.82906 5.54533 8.88831C5.31574 8.97084 5.10625 9.08616 4.90734 9.22159C4.76133 9.32105 4.62695 9.43743 4.48941 9.54853C4.38255 9.63529 4.27463 9.72205 4.17411 9.81727C4.05561 9.92942 3.94346 10.05 3.82919 10.1664C3.71916 10.2796 3.607 10.3918 3.49908 10.5082C3.30335 10.7187 3.13617 10.9515 3.01556 11.2139C2.92033 11.4191 2.86214 11.636 2.87484 11.8667C2.88648 12.0857 2.97535 12.2709 3.12983 12.419C3.25256 12.5354 3.40598 12.6031 3.5742 12.6412C3.7181 12.675 3.86305 12.6877 4.00588 12.6729C4.14872 12.6581 4.2905 12.6253 4.43016 12.5915C4.72853 12.5195 4.98351 12.3587 5.2385 12.1979C5.31257 12.1513 5.37922 12.0942 5.44588 12.0381C5.73684 11.7969 6.0278 11.7408 6.37166 11.908C6.5674 12.0032 6.68379 12.1788 6.78113 12.3682C6.8626 12.528 6.88164 12.6962 6.88799 12.8718C6.89645 13.1088 7.00861 13.2972 7.18636 13.4485C7.32179 13.5638 7.4551 13.6812 7.59582 13.7902C7.74923 13.9098 7.91958 14.0039 8.10368 14.0695C8.26133 14.1256 8.42426 14.169 8.59249 14.132C8.784 14.0896 8.92683 13.9764 9.01888 13.804C9.1268 13.5998 9.16807 13.3765 9.19769 13.1501C9.22943 12.912 9.22414 12.674 9.19981 12.4349C9.18817 12.3185 9.18923 12.1989 9.16278 12.0868C9.11622 11.8942 9.06438 11.7027 8.99243 11.5186C8.90038 11.2827 8.78929 11.0562 8.69089 10.8351Z" fill="#EF3E33"></path><path fill-rule="evenodd" clip-rule="evenodd" d="M5.58656 20.2211C5.80345 20.0719 6.02141 19.9291 6.2309 19.7746C6.40336 19.6476 6.57053 19.5112 6.73241 19.3704C6.9091 19.216 7.08051 19.0562 7.24556 18.8901C7.38628 18.7494 7.51853 18.5981 7.64973 18.4489C7.75871 18.3262 7.8698 18.2045 7.96503 18.0712C8.09622 17.8881 8.2179 17.6977 8.3364 17.5062C8.41363 17.3813 8.48452 17.2522 8.54801 17.1189C8.59879 17.0131 8.639 16.8999 8.67391 16.7878C8.7321 16.5994 8.79664 16.4111 8.83368 16.2175C8.91197 15.8101 8.81463 15.4419 8.54906 15.1203C8.43374 14.9806 8.30042 14.859 8.15336 14.7542C7.95868 14.6177 7.74919 14.514 7.51007 14.4865C7.23921 14.4548 7.00115 14.5225 6.79166 14.7087C6.56418 14.9108 6.42346 15.1658 6.31872 15.4419C6.23725 15.6546 6.17588 15.8757 6.1251 16.0969C6.0796 16.2926 6.05844 16.4936 6.02882 16.6936C5.99178 16.9401 5.96639 17.1888 5.91666 17.4332C5.87963 17.6173 5.76642 17.7707 5.63205 17.8987C5.46171 18.0606 5.28396 18.214 5.10303 18.3642C4.96443 18.4806 4.81101 18.5801 4.67453 18.6975C4.50207 18.8467 4.34653 19.0139 4.27141 19.2371C4.21111 19.4181 4.19523 19.6043 4.22169 19.7915C4.23756 19.8995 4.25554 20.0106 4.29363 20.1121C4.37087 20.3153 4.53275 20.419 4.74436 20.4444C4.9147 20.4655 5.08081 20.4401 5.23952 20.3692C5.3559 20.3184 5.47229 20.2698 5.58656 20.2211Z" fill="#EF3E33"></path><path fill-rule="evenodd" clip-rule="evenodd" d="M2.6209 18.123C2.71401 18.2521 2.80606 18.4002 2.91821 18.5303C3.04306 18.6742 3.18695 18.8012 3.37952 18.8552C3.47791 18.8827 3.57208 18.888 3.67683 18.8647C3.88314 18.8181 4.00482 18.6721 4.10957 18.5155C4.27674 18.2648 4.37937 17.9833 4.44602 17.6902C4.48305 17.5294 4.46189 17.3686 4.4037 17.2184C4.31906 17.0015 4.2122 16.793 4.12544 16.5761C4.0482 16.3815 3.96567 16.1847 3.92018 15.9815C3.86304 15.7286 3.89055 15.4705 4.00376 15.2356C4.06619 15.1055 4.15189 14.9827 4.24605 14.8737C4.33387 14.7722 4.35397 14.6685 4.33281 14.5457C4.29261 14.314 4.2196 14.095 4.11909 13.8802C4.03868 13.7099 3.94134 13.5533 3.83024 13.4041C3.73819 13.2814 3.62604 13.1777 3.48321 13.11C3.30334 13.0253 3.10972 13.0433 2.93408 13.1745C2.7849 13.2846 2.67804 13.4263 2.58916 13.5808C2.50558 13.7258 2.43574 13.8802 2.36909 14.0347C2.25376 14.3056 2.17335 14.5891 2.12891 14.8801C2.10246 15.0557 2.08236 15.2335 2.07178 15.4102C2.06014 15.6091 2.05485 15.808 2.06226 16.0069C2.06755 16.1667 2.08871 16.3275 2.1141 16.4862C2.1469 16.6946 2.1797 16.9041 2.23154 17.1073C2.30032 17.376 2.38284 17.6426 2.51616 17.8892C2.55636 17.9579 2.58281 18.0352 2.6209 18.123Z" fill="#EF3E33"></path><path fill-rule="evenodd" clip-rule="evenodd" d="M5.40143 15.6937C5.55696 15.6069 5.64901 15.4672 5.74 15.3212C5.85744 15.135 5.92198 14.9308 5.96853 14.7203C6.01403 14.515 6.02672 14.3087 5.99498 14.0981C5.97594 13.9722 5.94631 13.8527 5.88177 13.7458C5.81088 13.6294 5.70297 13.548 5.56119 13.5585C5.48607 13.5638 5.40777 13.6009 5.34006 13.64C5.11152 13.7712 4.99514 13.9934 4.89992 14.223C4.79306 14.479 4.73169 14.7467 4.74015 15.0292C4.74545 15.2175 4.76555 15.4016 4.86289 15.5635C4.95599 15.7169 5.08402 15.7899 5.266 15.7508C5.31361 15.7413 5.35699 15.7127 5.40143 15.6937Z" fill="#EF3E33"></path><path d="M10.7086 8.33182C10.0833 8.0144 9.38286 7.83136 8.69831 7.6917C7.93334 7.53617 7.13241 7.43566 6.35475 7.55416C6.18864 7.57955 6.09976 7.78587 6.13997 7.93294C6.18864 8.10857 6.35263 8.17311 6.51875 8.14772C7.15463 8.05038 7.92065 8.16041 8.57981 8.29479C8.93213 8.36673 9.28023 8.45667 9.62303 8.56353C9.91294 8.65346 10.1573 8.74128 10.3986 8.86401C10.752 9.04282 11.063 8.51168 10.7086 8.33182Z" fill="#EF3E33"></path><path d="M3.17004 20.9703C3.74562 21.3713 4.17518 21.8485 4.83223 22.0802C5.56862 22.3405 6.36639 22.4674 7.15251 22.4569C7.32074 22.4547 7.43712 22.2632 7.41808 22.1119C7.3948 21.931 7.24033 21.8442 7.07316 21.8464C6.42987 21.8548 5.68712 21.64 5.0523 21.4157C4.71373 21.2962 4.3815 21.1586 4.05668 21.0052C3.78159 20.8751 3.552 20.7555 3.32981 20.6C3.00499 20.3735 2.77539 20.5418 3.10127 20.7693L3.17004 20.9703Z" fill="#EF3E33"></path></g><defs><clipPath id="clip0"><rect width="28" height="14.9956" fill="white" transform="translate(1 7.5022)"></rect></clipPath></defs></svg> 