<?xml version="1.0" encoding="UTF-8"?> <svg xmlns="http://www.w3.org/2000/svg" width="30" height="31" viewBox="0 0 30 31" fill="none"><path d="M23.4272 13.8551C23.7907 13.0931 24 12.2729 24 11.4121C24 8.11889 21.0826 5.2049 17.1499 4.40761C17.4437 4.19241 17.6181 3.93135 17.6181 3.65089C17.6181 3.10936 16.981 3.38277 16.0649 3.56269C15.7399 3.62619 15.38 3 15 3C14.6108 3 14.2436 3.62266 13.9113 3.5574C13.008 3.37748 12.3819 3.11289 12.3819 3.65089C12.3819 3.93311 12.5545 4.19417 12.8501 4.40761C8.91738 5.20313 6 8.11889 6 11.4121C6 12.2729 6.2093 13.0931 6.57283 13.8551C6.2093 14.6154 6 15.4374 6 16.2982C6 17.1237 6.19278 17.9104 6.52876 18.6459C6.19278 19.3797 6 20.1682 6 20.992C6 24.862 10.03 28 15 28C19.9718 28 24 24.862 24 20.992C24 20.1682 23.8072 19.3797 23.4712 18.6442C23.8072 17.9086 24 17.1219 24 16.2964C24 15.4374 23.7925 14.6154 23.4272 13.8551ZM7.30539 11.4121C7.30539 8.10301 10.7497 5.74289 15 5.74289C19.2485 5.74289 22.6946 8.10301 22.6946 11.4121C22.6946 11.7861 22.645 12.1494 22.5606 12.504C20.9578 10.5725 18.1744 9.29013 15 9.29013C11.8256 9.29013 9.04223 10.5725 7.43941 12.504C7.35679 12.1494 7.30539 11.7843 7.30539 11.4121ZM21.5581 16.2012C21.2607 15.9542 20.9412 15.7214 20.5998 15.5097C19.0612 14.5554 17.1187 13.9821 15 13.9821C12.8813 13.9821 10.9388 14.5554 9.40024 15.5097C9.05875 15.7214 8.74113 15.9524 8.4437 16.2012C8.05998 16.5204 7.71297 16.8662 7.41004 17.2366C7.34761 16.9297 7.30722 16.6174 7.30722 16.2982C7.30722 15.9172 7.35863 15.5556 7.44492 15.2116C7.56242 14.7459 7.75887 14.3138 8.01775 13.9169C9.23684 12.056 11.9009 10.9853 15 10.9853C18.0991 10.9853 20.7632 12.056 21.9823 13.9169C22.2411 14.3138 22.4376 14.7459 22.5551 15.2116C22.6414 15.5556 22.6928 15.9172 22.6928 16.2982C22.6928 16.6192 22.6506 16.9297 22.59 17.2366C22.287 16.8662 21.9419 16.5204 21.5581 16.2012ZM10.3898 21.2777C9.37087 21.2777 8.54468 20.4839 8.54468 19.505C8.54468 18.526 9.37087 17.7322 10.3898 17.7322C11.4088 17.7322 12.235 18.526 12.235 19.505C12.235 20.4839 11.4088 21.2777 10.3898 21.2777ZM16.1255 19.8419C15.1065 19.8419 14.2803 19.0481 14.2803 18.0691C14.2803 17.0902 15.1065 16.2964 16.1255 16.2964C17.1444 16.2964 17.9706 17.0902 17.9706 18.0691C17.9706 19.0481 17.1444 19.8419 16.1255 19.8419ZM14.0802 23.6661C14.0802 24.645 13.254 25.4388 12.235 25.4388C11.216 25.4388 10.3898 24.645 10.3898 23.6661C10.3898 22.6871 11.216 21.8933 12.235 21.8933C13.254 21.8933 14.0802 22.6871 14.0802 23.6661ZM21.0073 21.8933C21.0073 22.7082 20.3188 23.3697 19.4706 23.3697C18.6224 23.3697 17.9357 22.7082 17.9357 21.8933C17.9357 21.0784 18.6242 20.4169 19.4706 20.4169C20.3188 20.4169 21.0073 21.0784 21.0073 21.8933ZM17.6732 24.7809C17.6732 25.3841 17.1646 25.8727 16.5367 25.8727C15.9088 25.8727 15.4002 25.3841 15.4002 24.7809C15.4002 24.1776 15.9088 23.689 16.5367 23.689C17.1628 23.6908 17.6732 24.1794 17.6732 24.7809Z" fill="#EF3E33"></path></svg> 