<?xml version="1.0" encoding="UTF-8"?> <svg xmlns="http://www.w3.org/2000/svg" width="30" height="31" viewBox="0 0 30 31" fill="none"><path fill-rule="evenodd" clip-rule="evenodd" d="M12.5614 23.8426L11.8251 17.9523C11.6561 16.6 12.7105 15.4055 14.0734 15.4055H17.1857V13.0254C17.1857 12.0064 14.164 12.1794 11.5204 13.7145C9.75617 14.7437 8.62238 13.6362 8.06388 13.0906C7.78616 12.8193 7.6507 12.687 7.6507 13.0254V22.5532C7.6507 23.5722 8.66443 23.8426 9.91796 23.8426H12.5614Z" fill="#EF3E33"></path><path fill-rule="evenodd" clip-rule="evenodd" d="M15.0634 2H12.3624L9.65924 2.00635C9.30505 2.00719 8.9656 2.14826 8.71515 2.39871C8.20377 2.91009 8.19061 3.73507 8.68544 4.2625L9.01177 4.61033C9.23016 4.84311 9.26317 5.19425 9.09197 5.46365L6.4314 9.65044C5.98895 10.3467 5.75397 11.1546 5.75397 11.9796V22.6523C5.75397 23.4864 6.08531 24.2864 6.67512 24.8762C7.26492 25.466 8.06486 25.7973 8.89897 25.7973H12.3624V25.7902H12.8049L12.6633 24.6574H12.3624V24.6645H8.89897C8.36532 24.6645 7.85352 24.4525 7.47618 24.0751C7.09883 23.6978 6.88683 23.186 6.88683 22.6523V11.9796C6.88683 11.3698 7.06052 10.7727 7.38755 10.258L10.0481 6.07124C10.4967 5.36532 10.4102 4.44519 9.83796 3.83521L9.51163 3.48738C9.43527 3.40599 9.43729 3.27868 9.51621 3.19977C9.55486 3.16112 9.60724 3.13935 9.6619 3.13922L12.363 3.13287H15.0634C15.118 3.13287 15.1704 3.15457 15.209 3.19319C15.2877 3.27181 15.2897 3.39865 15.2136 3.47974L14.8868 3.82811C14.3145 4.43809 14.228 5.35821 14.6766 6.06414L17.3372 10.2509C17.6642 10.7656 17.8379 11.3627 17.8379 11.9725V15.4055H18.9708V11.9725C18.9708 11.1475 18.7358 10.3396 18.2933 9.64334L15.6327 5.45654C15.4616 5.18715 15.4946 4.83601 15.713 4.60323L16.0398 4.25485C16.5343 3.72773 16.5212 2.90323 16.0101 2.39213C15.759 2.14106 15.4185 2 15.0634 2Z" fill="#EF3E33"></path><path fill-rule="evenodd" clip-rule="evenodd" d="M21.98 17.2938H14.0734C13.8463 17.2938 13.6705 17.4928 13.6987 17.7182L14.8316 26.7812C14.8552 26.9701 15.0158 27.1119 15.2063 27.1119H20.8471C21.0375 27.1119 21.1982 26.9701 21.2218 26.7812L22.3547 17.7182C22.3828 17.4928 22.2071 17.2938 21.98 17.2938ZM14.0734 16.1609C13.1648 16.1609 12.4619 16.9572 12.5746 17.8587L13.7074 26.9217C13.8019 27.6776 14.4445 28.2448 15.2063 28.2448H20.8471C21.6089 28.2448 22.2514 27.6776 22.3459 26.9217L23.4788 17.8587C23.5915 16.9572 22.8885 16.1609 21.98 16.1609H14.0734Z" fill="#EF3E33"></path><path d="M14.5424 19.1819C14.5424 19.1819 16.6471 20.0781 18.0826 20.0106C18.8956 19.9723 19.2936 19.5451 20.1055 19.5962C20.7283 19.6355 21.6228 20.0106 21.6228 20.0106L20.7091 25.9986C20.6529 26.3675 20.3357 26.6399 19.9625 26.6399H16.2136C15.8357 26.6399 15.516 26.3606 15.4652 25.9862L14.5424 19.1819Z" fill="#EF3E33"></path></svg> 