<?xml version="1.0" encoding="UTF-8"?> <svg xmlns="http://www.w3.org/2000/svg" width="30" height="30" viewBox="0 0 30 30" fill="none"><g clip-path="url(#clip0)"><path fill-rule="evenodd" clip-rule="evenodd" d="M13.7266 24.8922C13.2534 25.3637 12.7764 25.8315 12.3125 26.3121C12.1683 26.4607 12.0352 26.5139 11.8244 26.4625C11.5028 26.3873 11.1719 26.347 10.8428 26.3029C10.682 26.2809 10.6081 26.2039 10.5859 26.0461C10.5341 25.6829 10.4528 25.3215 10.4177 24.9564C10.4066 24.8482 10.4842 24.7014 10.5674 24.6171C11.5693 23.6099 12.5768 22.6083 13.5935 21.614C13.7469 21.4654 13.8043 21.315 13.8043 21.1059C13.7969 19.7979 13.8006 18.4899 13.8006 17.1416C13.71 17.1819 13.6416 17.204 13.5806 17.2388C12.4788 17.8845 11.3771 18.5266 10.2827 19.1833C10.1663 19.2531 10.0591 19.3998 10.0239 19.5319C9.66346 20.8876 9.31223 22.2487 8.97209 23.6099C8.91294 23.8484 8.81681 23.997 8.56356 24.0704C8.25485 24.1584 7.96462 24.307 7.65776 24.4006C7.56718 24.4281 7.4119 24.3877 7.3472 24.3199C7.09949 24.0594 6.86657 23.7842 6.65214 23.4962C6.58374 23.4045 6.54862 23.2485 6.57265 23.1385C6.70759 22.5441 6.86657 21.9552 7.0163 21.3627C7.03479 21.2893 7.04588 21.2159 7.06991 21.0894C6.94606 21.1536 6.86287 21.1903 6.78523 21.2361C6.26394 21.5406 5.74819 21.8543 5.21765 22.1442C5.11043 22.2029 4.93666 22.2176 4.8239 22.1735C4.4967 22.0488 4.17875 21.8965 3.87189 21.7278C3.7887 21.6819 3.70921 21.5443 3.70737 21.4471C3.70367 21.1371 3.75543 20.827 3.74988 20.5188C3.74434 20.262 3.84601 20.1244 4.06969 20.0015C4.64829 19.6842 5.21025 19.3356 5.84431 18.9614C5.15664 18.7834 4.54477 18.6092 3.92365 18.4734C3.64636 18.4129 3.47999 18.301 3.4005 18.0185C3.31732 17.7213 3.16758 17.4443 3.07146 17.1489C3.04558 17.0682 3.0807 16.9233 3.1417 16.8664C3.42084 16.6096 3.71291 16.3656 4.01793 16.14C4.10111 16.0794 4.25269 16.0592 4.35621 16.0849C5.78516 16.4353 7.21225 16.8004 8.6412 17.1526C8.74287 17.1783 8.87966 17.1691 8.96655 17.1196C10.1385 16.4408 11.3031 15.7511 12.4696 15.065C12.501 15.0466 12.5269 15.0191 12.5787 14.9769C12.5029 14.9237 12.4474 14.8778 12.3846 14.8393C11.2773 14.1863 10.1718 13.5277 9.05713 12.8893C8.92403 12.8122 8.72253 12.7829 8.5728 12.8196C7.17158 13.1589 5.77407 13.5222 4.37285 13.8652C4.25454 13.8946 4.08263 13.8616 3.9865 13.79C3.65191 13.5405 3.3395 13.2617 2.99567 12.9773C3.16389 12.5444 3.32286 12.1096 3.50957 11.6877C3.54469 11.607 3.68518 11.5501 3.7887 11.5226C4.44679 11.3483 5.10858 11.1851 5.82583 11.0034C5.70197 10.9246 5.62618 10.8714 5.54669 10.8237C5.13631 10.5797 4.74256 10.299 4.31 10.1027C3.87004 9.90276 3.72215 9.60375 3.71106 9.14329C3.69073 8.30861 3.68518 8.3398 4.41722 7.94722C4.85163 7.71608 5.18437 7.72892 5.58181 8.00776C6.03287 8.32512 6.53198 8.57644 7.06252 8.89014C7.04218 8.76172 7.03479 8.68468 7.0163 8.60946C6.86287 8.00959 6.70205 7.41155 6.55971 6.80801C6.53568 6.70528 6.56895 6.55852 6.63365 6.47414C6.84993 6.18796 7.09764 5.9238 7.32132 5.64312C7.42114 5.51838 7.50802 5.48169 7.667 5.5514C7.98865 5.69266 8.31585 5.8174 8.64859 5.92747C8.83345 5.988 8.89815 6.10725 8.94251 6.27969C9.29559 7.66838 9.65236 9.05524 10.0165 10.4421C10.0461 10.5522 10.1182 10.6824 10.2106 10.7374C11.3549 11.4235 12.5084 12.0968 13.6582 12.7719C13.6822 12.7866 13.7118 12.7921 13.7691 12.8122C13.7765 12.7223 13.7913 12.6416 13.7913 12.5627C13.7932 11.3116 13.7987 10.0605 13.7839 8.81125C13.7821 8.65899 13.6989 8.47371 13.5898 8.36364C12.6119 7.37303 11.6248 6.39342 10.6284 5.42115C10.4436 5.23954 10.3604 5.07811 10.4306 4.81394C10.5083 4.52593 10.5378 4.22324 10.5785 3.92606C10.6007 3.75912 10.6783 3.67474 10.8521 3.65089C11.1904 3.60503 11.525 3.52248 11.8633 3.49313C11.9964 3.48212 12.1738 3.53532 12.2681 3.62521C12.7598 4.09483 13.2312 4.58463 13.7673 5.1258C13.7784 4.9552 13.7913 4.86531 13.7913 4.77725C13.7932 4.1572 13.7839 3.53532 13.8006 2.91527C13.8043 2.8052 13.8856 2.67128 13.9743 2.59423C14.1259 2.46032 14.3108 2.36493 14.4827 2.25119C15.0243 1.8953 15.0003 1.93566 15.5789 2.25302C16.1076 2.54104 16.3239 2.89876 16.2536 3.49679C16.1963 3.98476 16.2444 4.48374 16.2462 4.97905C16.2462 4.99739 16.2573 5.0139 16.2795 5.08178C16.4144 4.94969 16.5346 4.83412 16.6547 4.71672C17.0208 4.35349 17.3942 3.99577 17.7491 3.62337C17.8822 3.48395 18.0134 3.4546 18.1909 3.48946C18.507 3.55183 18.825 3.60686 19.1429 3.64539C19.337 3.66923 19.435 3.74628 19.4609 3.94624C19.5052 4.29112 19.5903 4.63233 19.618 4.97905C19.6272 5.09645 19.5515 5.25422 19.4627 5.34411C18.4571 6.35857 17.4367 7.36202 16.4274 8.37465C16.3442 8.4572 16.2499 8.57828 16.2499 8.68284C16.2388 10.0495 16.2425 11.4162 16.2425 12.8177C16.3368 12.7755 16.4052 12.7517 16.468 12.715C17.5605 12.0748 18.6549 11.4364 19.74 10.7833C19.8639 10.7081 19.9822 10.5558 20.0191 10.4164C20.3907 9.03323 20.7512 7.64637 21.1006 6.25584C21.1468 6.07056 21.2337 5.977 21.4056 5.91646C21.7365 5.80089 22.0581 5.6578 22.3909 5.5514C22.474 5.52572 22.6201 5.56241 22.6792 5.62295C22.8881 5.83941 23.0563 6.09624 23.2726 6.30353C23.5037 6.52367 23.5148 6.74381 23.4298 7.03182C23.2541 7.62252 23.1155 8.22422 22.9399 8.90481C23.4371 8.61497 23.89 8.404 24.2764 8.10865C24.7884 7.72158 25.2303 7.70874 25.8052 8.01876C26.2211 8.24257 26.3468 8.44986 26.3449 8.90848C26.3412 9.52303 26.1786 9.93578 25.5741 10.1926C25.1138 10.3871 24.6997 10.6934 24.1932 10.9924C24.8051 11.1502 25.3356 11.3337 25.8828 11.4162C26.3671 11.4896 26.6148 11.7244 26.7313 12.1738C26.8034 12.4508 27.0308 12.7462 26.9716 12.981C26.9143 13.203 26.552 13.3351 26.3671 13.5442C26.0547 13.9001 25.7201 13.9111 25.282 13.79C24.0047 13.4341 22.7162 13.1259 21.4296 12.8086C21.3187 12.781 21.1671 12.781 21.0747 12.8361C19.8934 13.5185 18.7196 14.2138 17.5458 14.9054C17.5217 14.92 17.5032 14.9421 17.4644 14.9787C17.531 15.0264 17.5883 15.0741 17.6493 15.1108C18.7658 15.7694 19.8787 16.4316 21.0007 17.0774C21.1246 17.1489 21.3168 17.1709 21.4573 17.1361C22.8585 16.7949 24.2579 16.4427 25.6536 16.0813C25.8273 16.0372 25.9457 16.0574 26.0751 16.173C26.3302 16.4005 26.5871 16.6224 26.8607 16.8261C27.0178 16.9435 27.0271 17.0535 26.9513 17.2168C26.8533 17.4278 26.7479 17.6406 26.698 17.8644C26.6037 18.2845 26.3394 18.4459 25.9346 18.5248C25.3726 18.633 24.8217 18.7963 24.2006 18.954C24.415 19.0861 24.5759 19.1907 24.7404 19.2879C25.1341 19.5209 25.5186 19.774 25.929 19.9758C26.2155 20.1171 26.3135 20.3171 26.3098 20.6142C26.3061 20.9518 26.4374 21.3554 26.2932 21.6104C26.1582 21.8488 25.7275 21.9075 25.4502 22.0836C25.1526 22.2726 24.916 22.2396 24.6276 22.0506C24.1082 21.7112 23.5592 21.4141 22.9805 21.0729C22.9916 21.1829 22.9898 21.2526 23.0064 21.3187C23.1617 21.9277 23.3262 22.5368 23.4686 23.1495C23.4926 23.2522 23.4612 23.399 23.3983 23.4833C23.1746 23.7769 22.9343 24.0594 22.6792 24.3272C22.6164 24.3932 22.4556 24.4281 22.3668 24.3987C22.0248 24.2887 21.6866 24.1584 21.3594 24.008C21.2558 23.9603 21.1468 23.8392 21.119 23.731C20.7438 22.3276 20.3852 20.9206 20.0136 19.5172C19.984 19.4072 19.9119 19.2769 19.8195 19.2219C18.6752 18.5376 17.5217 17.8644 16.3701 17.1893C16.346 17.1746 16.3165 17.1691 16.2647 17.1508C16.2555 17.2296 16.2407 17.3012 16.2407 17.3709C16.2407 18.6403 16.2351 19.9116 16.2499 21.1811C16.2518 21.315 16.3257 21.4801 16.4218 21.5773C17.4145 22.579 18.4164 23.5751 19.4239 24.562C19.594 24.729 19.6716 24.8739 19.6032 25.1179C19.5256 25.3967 19.4923 25.6884 19.4646 25.9764C19.4424 26.1947 19.3555 26.2993 19.1263 26.3213C18.8065 26.3525 18.4885 26.4093 18.1743 26.4754C18.0005 26.5121 17.884 26.4754 17.7602 26.3488C17.3461 25.9232 16.9209 25.5086 16.4976 25.0922C16.4311 25.0261 16.359 24.9674 16.2388 24.8592C16.2388 25.5086 16.2092 26.0956 16.2499 26.6808C16.2795 27.0991 16.1593 27.3706 15.7785 27.5614C15.5105 27.6953 15.2683 28.0072 15.0169 28.0072C14.7637 28.0072 14.5252 27.6898 14.2553 27.5577C13.8708 27.3688 13.758 27.0936 13.7858 26.679C13.8246 26.1011 13.795 25.5178 13.795 24.9362C13.7728 24.9179 13.7506 24.9051 13.7266 24.8922Z" fill="#EF3E33"></path></g><defs><clipPath id="clip0"><rect width="24" height="26" fill="white" transform="translate(3 2)"></rect></clipPath></defs></svg> 