<?xml version="1.0" encoding="UTF-8"?> <svg xmlns="http://www.w3.org/2000/svg" width="30" height="30" viewBox="0 0 30 30" fill="none"><g clip-path="url(#clip0)"><path fill-rule="evenodd" clip-rule="evenodd" d="M14.9896 3.5C17.5655 3.5 20.1398 3.5 22.7157 3.5C23.2948 3.5 23.2666 3.51136 23.4437 4.02741C23.9714 5.56258 24.0756 7.14482 23.9516 8.73841C23.8986 9.41999 23.7249 10.1016 23.538 10.7653C23.2253 11.8753 22.7124 12.8993 22.0407 13.847C21.096 15.1793 19.8784 16.1855 18.4093 16.9271C17.4646 17.4058 16.6242 18.029 16.1245 18.9864C15.9988 19.2282 15.9161 19.5203 15.9095 19.7913C15.883 20.7212 15.9343 21.6527 15.8863 22.5809C15.8532 23.2398 16.103 23.7234 16.6374 24.0528C17.2479 24.4293 17.8948 24.7539 18.5267 25.0963C19.0628 25.3884 19.6087 25.6626 20.1332 25.9742C20.2341 26.0343 20.3681 26.2241 20.3119 26.3539C20.2573 26.4789 20.0521 26.4935 19.9214 26.4935C16.6374 26.5016 13.3534 26.5016 10.0694 26.4935C9.93373 26.4935 9.7137 26.4724 9.66076 26.3377C9.60451 26.1949 9.75837 26.0002 9.87087 25.9304C10.2927 25.6707 10.7411 25.45 11.1828 25.2212C12.0199 24.7896 12.9282 24.478 13.6297 23.8175C13.9275 23.5368 14.0995 23.2171 14.0896 22.7886C14.0681 21.9075 14.0532 21.0247 14.0929 20.1451C14.1326 19.272 13.7356 18.6245 13.1416 18.0387C12.5146 17.4204 11.7486 17.0147 10.9826 16.596C9.82785 15.9664 8.88153 15.0966 8.1023 14.0547C7.47362 13.2141 7.01701 12.2924 6.64973 11.3057C6.32712 10.4359 6.17822 9.76402 6.08392 8.92016C5.98796 8.05196 5.99292 7.58947 6.0012 6.9728C6.01774 5.89364 6.27087 4.86153 6.61167 3.83917C6.72252 3.5211 6.87804 3.5 7.1444 3.5C9.76002 3.50487 12.3756 3.50325 14.9896 3.50325C14.9896 3.50162 14.9896 3.50162 14.9896 3.5ZM12.8405 15.5574C12.8736 15.5169 12.9051 15.4763 12.9381 15.4373C12.7942 15.288 12.6503 15.1404 12.5063 14.9911C11.3069 13.7513 10.4995 12.294 10.0313 10.6549C9.89072 10.1632 9.79973 9.65692 9.68061 9.15872C9.62932 8.94126 9.69715 8.81955 9.93539 8.81306C10.0247 8.81144 10.1157 8.81144 10.2051 8.81144C14.0483 8.80981 17.8915 8.80819 21.7347 8.80657C22.1085 8.80657 22.1367 8.77898 22.1582 8.40898C22.2111 7.47749 22.1946 6.55087 22.0093 5.63236C21.9613 5.39706 21.8687 5.29158 21.5973 5.29158C17.2959 5.29969 12.9927 5.29644 8.69127 5.29644C8.05598 5.29644 8.05598 5.29807 7.94017 5.91635C7.62583 7.60569 7.77804 9.26745 8.37528 10.8675C8.95101 12.4076 9.89237 13.7253 11.2788 14.6827C11.7668 15.0187 12.3177 15.2686 12.8405 15.5574Z" fill="#EF3E33"></path></g><defs><clipPath id="clip0"><rect width="18" height="23" fill="white" transform="translate(6 3.5)"></rect></clipPath></defs></svg> 