<?xml version="1.0" encoding="UTF-8"?> <svg xmlns="http://www.w3.org/2000/svg" width="30" height="31" viewBox="0 0 30 31" fill="none"><g clip-path="url(#clip0)"><path fill-rule="evenodd" clip-rule="evenodd" d="M26.44 4.4439C24.2066 4.44234 21.9732 4.4439 19.7414 4.4439C19.6452 4.4439 19.549 4.4439 19.4528 4.4439C17.2768 4.4439 15.1024 4.44077 12.9265 4.44702C12.2622 4.44858 11.913 4.8652 11.9968 5.51276C12.1971 7.04662 12.3942 8.58049 12.5913 10.1143C12.8054 11.7762 13.0196 13.4364 13.2323 15.0982C13.2012 14.8642 13.1702 14.6286 13.1407 14.3945C13.015 13.4286 13.046 13.3927 12.135 13.0635C11.4179 12.8045 10.6668 12.6422 9.89074 12.4253C9.89074 12.444 9.88764 12.3878 9.89074 12.3332C9.97766 11.1739 10.3983 10.1799 11.3124 9.42778C11.6119 9.18123 11.6647 8.86916 11.4629 8.62262C11.2596 8.37295 10.9539 8.37607 10.6481 8.62574C9.90782 9.22493 9.39875 9.98327 9.10387 10.8899C9.08059 10.9632 9.04799 11.0334 9.0123 11.1239C8.02211 9.28734 6.68581 8.11237 5.38522 7.95009C5.20363 8.96434 5.1757 9.96455 5.63044 10.9226C6.12398 11.965 7.03036 12.4159 8.16645 12.611C8.02676 12.6547 7.94916 12.6859 7.8669 12.7062C4.33295 13.555 2.04216 16.8818 2.57761 20.5143C2.98734 23.2918 4.56575 25.222 7.19333 26.1349C9.8209 27.0477 12.2157 26.4688 14.2876 24.5901C14.3544 24.5292 14.4025 24.4668 14.432 24.3981C14.4909 24.8413 14.5499 25.2844 14.6104 25.7292C14.6772 26.2254 15.0248 26.5343 15.5137 26.5343C18.3338 26.539 21.1538 26.539 23.9738 26.5328C24.4658 26.5312 24.8197 26.1941 24.8864 25.6979C24.9345 25.3437 24.9764 24.988 25.023 24.6338C25.2853 22.6115 25.5491 20.5892 25.8099 18.5654C26.0877 16.409 26.3639 14.2509 26.6417 12.0945C26.9211 9.93802 27.2082 7.78157 27.4783 5.62355C27.5838 4.79966 27.2563 4.4439 26.44 4.4439ZM5.39919 20.5799C5.39453 20.3599 5.57767 20.1789 5.80271 20.1804C6.01379 20.182 6.19072 20.3552 6.19382 20.5627C6.19693 20.7812 6.01068 20.9653 5.78874 20.9622C5.57612 20.9606 5.40229 20.789 5.39919 20.5799ZM5.5637 22.2682C5.56525 22.056 5.73442 21.8797 5.9424 21.875C6.16433 21.8703 6.34437 22.0498 6.34282 22.2776C6.34127 22.4913 6.17365 22.6661 5.96412 22.6724C5.74529 22.6786 5.56215 22.4929 5.5637 22.2682ZM6.23262 24.3186C6.01379 24.3248 5.82134 24.1391 5.82289 23.9207C5.82289 23.7116 5.99827 23.5321 6.20624 23.5243C6.42507 23.5165 6.61442 23.7006 6.61442 23.9238C6.61442 24.1313 6.43904 24.3123 6.23262 24.3186ZM8.05936 25.0129C7.85449 25.0067 7.67756 24.8241 7.67445 24.6166C7.6729 24.3966 7.86535 24.2047 8.08108 24.2125C8.2844 24.2203 8.46443 24.4044 8.46599 24.6104C8.46754 24.8304 8.27509 25.0207 8.05936 25.0129ZM8.09816 22.9876C7.88863 22.9735 7.72257 22.7909 7.72877 22.5818C7.73498 22.3572 7.92278 22.1886 8.15092 22.2042C8.3651 22.2183 8.52962 22.3962 8.52186 22.6068C8.51255 22.8237 8.31699 23.0016 8.09816 22.9876ZM10.077 24.7383C9.86591 24.7367 9.68743 24.5651 9.68277 24.3576C9.67656 24.1407 9.86436 23.9534 10.0863 23.955C10.2958 23.9566 10.4743 24.1282 10.4805 24.3357C10.4852 24.5526 10.2989 24.7399 10.077 24.7383ZM11.1075 14.0653C10.7599 14.744 10.2244 15.145 9.26062 15.1606C9.09456 15.1107 8.75932 15.0311 8.44115 14.911C8.21301 14.8252 8.12609 14.627 8.22387 14.3898C8.3232 14.1542 8.5172 14.0996 8.75001 14.1667C8.84158 14.1932 8.92849 14.2385 9.02006 14.2665C9.61448 14.4538 10.0537 14.2868 10.361 13.7407C10.479 13.5316 10.6233 13.4036 10.8685 13.4614C11.1231 13.5222 11.241 13.8031 11.1075 14.0653ZM26.0318 7.74568C25.7881 9.65403 25.5445 11.5624 25.2992 13.4707C25.0214 15.6288 24.7436 17.7852 24.4658 19.9432C24.2454 21.6503 24.0235 23.3558 23.8108 25.0644C23.7891 25.2408 23.7441 25.3141 23.5532 25.3141C23.3577 25.3141 23.1637 25.3141 22.9681 25.3125C23.4772 20.9419 23.9847 16.6024 24.4906 12.2661C24.4363 12.2568 24.4161 12.2474 24.3991 12.2505C24.3525 12.2583 24.3059 12.2724 24.2594 12.2817C22.8098 12.5954 21.3555 12.7374 19.8796 12.4768C19.1905 12.3551 18.4998 12.2193 17.803 12.1725C16.85 12.1101 15.9079 12.2505 14.9736 12.4986C14.9736 12.5985 14.9643 12.6843 14.9752 12.7686C15.2126 14.6286 15.4532 16.487 15.6922 18.347C15.9886 20.6563 16.2897 22.9673 16.5753 25.2782C16.5769 25.2876 16.5784 25.2985 16.58 25.3078C16.3441 25.3078 16.1097 25.3078 15.8738 25.3078C15.8272 25.3078 15.7807 25.2969 15.7139 25.2876C14.8758 18.7558 14.0393 12.2302 13.2012 5.6844C17.5764 5.6844 21.9143 5.6844 26.2972 5.6844C26.2041 6.38658 26.1187 7.06691 26.0318 7.74568Z" fill="#EF3E33"></path></g><defs><clipPath id="clip0"><rect width="25" height="22.1154" fill="white" transform="translate(2.5 4.44226)"></rect></clipPath></defs></svg> 