<?xml version="1.0" encoding="UTF-8"?> <svg xmlns="http://www.w3.org/2000/svg" width="30" height="30" viewBox="0 0 30 30" fill="none"><path d="M6.6627 12.6394C5.74485 12.5078 4.69589 12.5078 4.04028 12.7709C4.49921 12.9024 5.02369 13.0339 5.54817 13.2312C6.07265 13.4285 6.53158 13.7572 6.92494 14.086C7.18718 13.6915 7.44942 13.3627 7.77722 13.0339C7.51498 12.7709 7.12162 12.7051 6.6627 12.6394Z" fill="#EF3E33"></path><path d="M28.4287 11.7187C29.1499 11.2584 29.6088 10.7323 29.4777 10.272C29.3466 9.81171 28.7565 9.48292 27.9042 9.41716C28.3632 8.75959 28.2976 7.90474 27.8387 7.57595C27.1175 7.04989 25.6096 7.57595 24.4295 8.4308C23.7084 8.95686 23.315 9.54868 23.1839 10.0747C23.4461 10.535 23.6428 11.0611 23.7739 11.5872C23.8395 11.9817 23.9051 12.3763 23.9051 12.7708C24.4295 12.6393 24.954 12.5735 25.4785 12.5735C26.7897 12.5735 27.4453 13.0996 27.8387 13.4941C27.9698 13.6914 28.1009 13.8887 28.1665 14.086C28.691 13.9544 29.0188 13.7572 29.2155 13.3626C29.4777 12.9023 29.0843 12.1132 28.4287 11.7187Z" fill="#EF3E33"></path><path d="M22.9872 13.0995C22.9872 12.7049 22.9872 12.2446 22.8561 11.8501C22.2005 8.95673 19.0536 7.24703 14.9889 8.16764C12.6287 8.6937 10.9241 9.94309 10.0718 11.4555C11.2519 10.9295 12.6287 10.6664 14.1366 10.6664C17.349 10.6664 19.9715 11.9816 21.3482 14.0201C21.7416 13.6913 22.2005 13.4282 22.725 13.1652C22.7905 13.1652 22.9217 13.0995 22.9872 13.0995Z" fill="#EF3E33"></path><path d="M26.3964 16.1903C26.9864 15.6642 27.1175 14.8751 26.7897 14.4148C26.7242 14.3491 26.6586 14.2833 26.5931 14.2833C26.3308 14.086 25.9375 14.0203 25.4785 14.0203C25.3474 14.0203 25.2163 14.0203 25.0852 14.0203C24.4951 14.086 23.9051 14.2175 23.2495 14.4806C22.9872 14.6121 22.7906 14.6778 22.5939 14.8094C22.3316 14.9409 22.135 15.1381 22.0038 15.3354C21.8727 15.4669 21.7416 15.6642 21.676 15.7957C21.676 15.8615 21.676 15.8615 21.676 15.9272C21.676 15.993 21.7416 16.1245 21.7416 16.1903C21.8072 16.5848 21.8727 16.9794 21.8727 17.4397C21.8727 18.0315 21.8072 18.5575 21.6105 19.0836C21.676 19.2151 22.135 19.8727 23.1839 20.3988C23.9051 20.7275 24.7574 20.9248 25.413 20.9248C26.003 20.9248 26.4619 20.7933 26.7242 20.4645C27.1175 20.0042 26.9209 19.2151 26.3308 18.6891C27.1175 18.426 27.7076 18.0315 27.7076 17.5054C27.7731 16.8478 27.1831 16.4533 26.3964 16.1903Z" fill="#EF3E33"></path><path d="M20.4304 15.2037C19.447 13.2967 17.1523 11.9816 14.1366 11.9816C12.2353 11.9816 10.6619 12.5076 9.48178 13.2967C9.15398 13.5598 8.82618 13.8228 8.56394 14.1516C8.3017 14.4804 8.03945 14.8091 7.90833 15.1379C7.58053 15.7955 7.38385 16.5188 7.38385 17.3079C7.38385 17.7682 7.44941 18.1628 7.58053 18.5573C7.64609 18.8861 7.77721 19.2149 7.97389 19.4779C8.9573 21.3192 11.1864 22.6343 14.2677 22.6343C17.349 22.6343 19.5781 21.3192 20.5615 19.4779C20.8893 18.8204 21.086 18.097 21.086 17.3079C21.086 17.1764 21.086 16.9791 21.086 16.8476C20.8893 16.3216 20.6926 15.7298 20.4304 15.2037ZM9.21954 15.9928C9.02286 15.664 9.21954 15.2037 9.54734 14.8091C9.80958 14.4146 10.2685 14.0858 10.8585 13.8228C11.383 13.494 12.0386 13.2967 12.4976 13.2967C12.9565 13.2967 13.3498 13.4282 13.481 13.757C13.8088 14.3488 13.0876 15.3352 11.9075 15.9928C11.3175 16.3216 10.7274 16.4531 10.2029 16.4531H10.1374C9.74402 16.3873 9.35066 16.2558 9.21954 15.9928Z" fill="#EF3E33"></path><path d="M6.26931 15.2699C6.00707 14.9411 5.54815 14.678 5.02366 14.415C4.36806 14.2177 3.77802 14.0205 3.18797 13.9547C3.05685 13.9547 2.92573 13.9547 2.79461 13.9547C2.20457 13.9547 1.74565 14.0862 1.48341 14.415C1.09004 14.8753 1.28672 15.6644 1.87677 16.1905C1.09004 16.4535 0.5 16.848 0.5 17.3741C0.5 17.9002 1.02448 18.2947 1.87677 18.5577C1.28672 19.0838 1.1556 19.9387 1.48341 20.3332C1.74565 20.662 2.20457 20.7935 2.79461 20.7935C3.45022 20.7935 4.3025 20.5962 5.02366 20.2674C5.54815 20.0702 6.00707 19.7414 6.26931 19.4126C6.40043 19.3468 6.46599 19.2153 6.53155 19.0838C6.53155 19.0181 6.59711 19.0181 6.59711 18.9523C6.46599 18.492 6.40043 17.9659 6.40043 17.3741C6.40043 16.7823 6.46599 16.2562 6.66267 15.7302C6.53155 15.5987 6.40043 15.4671 6.26931 15.2699Z" fill="#EF3E33"></path></svg> 