<?xml version="1.0" encoding="UTF-8"?> <svg xmlns="http://www.w3.org/2000/svg" width="30" height="31" viewBox="0 0 30 31" fill="none"><path d="M26.7977 10.0596C26.9733 9.70449 26.9463 9.2836 26.7032 8.95478C25.5553 7.37645 23.8402 6.17955 21.7469 5.50876C21.7064 5.49561 21.6659 5.48245 21.6389 5.4693C21.5173 5.11418 21.2202 4.82482 20.8286 4.73275C18.7758 4.28555 16.6015 4.31186 14.5218 4.83797C12.4555 5.35093 10.5378 6.35054 8.97123 7.70527C8.66061 7.96833 8.55257 8.37606 8.6201 8.73118C8.59309 8.75749 8.56608 8.7838 8.53907 8.82325C8.0664 9.30991 7.66125 9.82286 7.31012 10.3621C7.51269 10.2043 7.75578 10.0991 8.03939 10.0596C8.30949 10.007 8.57958 9.9807 8.84968 9.95439C8.95772 9.82286 9.06576 9.70449 9.18731 9.57296L9.48442 9.90178C9.91657 9.87547 10.3487 9.86232 10.7944 9.88863L9.63297 8.61281C9.59245 8.5602 9.59245 8.48128 9.64647 8.44182C11.0915 7.17916 12.8742 6.25847 14.7919 5.78497C16.7096 5.29831 18.7218 5.27201 20.6125 5.6929C20.68 5.70605 20.7205 5.77181 20.707 5.83758L19.0729 12.9664C19.37 13.2031 19.6401 13.453 19.9102 13.7161C19.9237 13.7292 19.9237 13.7292 19.9372 13.7424C20.6395 13.8871 21.3147 14.1501 21.9495 14.5184L22.017 14.571L22.0575 14.5842C22.3006 14.7025 22.5842 14.7288 22.8408 14.6631C22.8948 14.6499 22.9488 14.6368 22.9894 14.6105C23.8537 15.2681 24.637 16.123 25.2717 17.1095C25.5688 17.5698 26.082 17.7934 26.6357 17.7145C26.6762 17.7014 26.7302 17.7014 26.7707 17.6882C27.2569 17.5698 27.6216 17.2147 27.7431 16.7281C27.8916 16.1099 27.9862 15.4654 27.9997 14.8078C28.0132 13.1374 27.608 11.5064 26.7977 10.0596ZM22.6382 13.6635C22.5977 13.7029 22.5437 13.7161 22.4762 13.6898L22.3951 13.6372C21.6794 13.2163 20.9096 12.9269 20.1128 12.7691L21.5578 6.46891C23.3945 7.08709 24.8936 8.12616 25.8929 9.52035C25.9334 9.57296 25.9334 9.62557 25.8929 9.67818L22.6382 13.6635ZM26.9868 14.7551C26.9733 15.347 26.8923 15.9257 26.7572 16.465C26.7032 16.6755 26.5412 16.7149 26.4601 16.7281C26.3926 16.7412 26.217 16.7412 26.0955 16.5702C25.4337 15.5312 24.5964 14.6105 23.6916 13.9002L26.136 10.9145C26.7302 12.1114 27.0273 13.4267 26.9868 14.7551Z" fill="#EF3E33"></path><path d="M5.41926 19.8451C4.74401 20.3844 4.12278 21.042 3.58258 21.7917C3.17744 22.3573 2.27261 22.1732 2.13756 21.4892C2.02952 20.9368 1.989 20.3712 2.00251 19.7794C2.04302 18.5825 2.32662 17.425 2.86682 16.3728L5.35173 19.7662C5.36524 19.7925 5.39225 19.8188 5.41926 19.8451Z" fill="#EF3E33"></path><path d="M8.28251 18.9509C7.72881 19.0825 7.18861 19.2798 6.66192 19.556C6.39182 19.7006 6.0677 19.6217 5.89214 19.385L2.97507 15.3997C2.82652 15.1893 2.82652 14.8999 3.00208 14.7026C4.01495 13.4662 5.40596 12.5324 7.08057 11.98L8.28251 18.9509Z" fill="#EF3E33"></path><path d="M19.1269 25.0274C18.7893 25.514 18.4246 25.9612 18.006 26.3558C17.4928 26.8425 16.642 26.4873 16.642 25.8034C16.642 24.8959 16.5204 24.0146 16.2773 23.186C16.3179 23.1728 16.3584 23.1728 16.3854 23.1597L20.4099 21.7655C20.2478 22.9098 19.8021 24.0278 19.1269 25.0274Z" fill="#EF3E33"></path><path d="M20.9096 20.8843L16.1828 22.5284C15.8992 22.6336 15.5886 22.5021 15.4536 22.239C15.1835 21.7261 14.8593 21.2526 14.4812 20.8448L19.5591 15.7942C20.6124 17.1884 21.2067 18.7273 21.3012 20.2924C21.3147 20.5555 21.1526 20.8054 20.9096 20.8843Z" fill="#EF3E33"></path><path d="M19.1134 14.4658C17.7494 13.1374 16.0073 12.1115 14.0896 11.5196C12.1719 10.9278 10.1326 10.8094 8.24195 11.125C7.91783 11.1777 7.70175 11.4802 7.75577 11.7958L8.97121 18.8457C9.02523 19.1219 9.26832 19.3324 9.55193 19.3455C10.1596 19.3455 10.8079 19.4507 11.4696 19.648C12.1314 19.8453 12.7121 20.1215 13.2253 20.4635C13.4684 20.6213 13.7925 20.5819 13.9951 20.3846L19.1404 15.2813C19.343 15.0577 19.343 14.6894 19.1134 14.4658Z" fill="#EF3E33"></path></svg> 