<?xml version="1.0" encoding="UTF-8"?> <svg xmlns="http://www.w3.org/2000/svg" width="30" height="31" viewBox="0 0 30 31" fill="none"><path d="M18.0018 9.4767H11.9983C11.4286 9.4767 10.965 9.00486 10.965 8.42503V7.35928C10.965 6.77946 11.4286 6.30762 11.9983 6.30762H18.0018C18.5714 6.30762 19.035 6.77946 19.035 7.35928V8.42503C19.035 9.00486 18.5714 9.4767 18.0018 9.4767ZM12.026 8.39686H17.9718V7.3898H12.026V8.39686Z" fill="#EF3E33"></path><path d="M14.9989 29.5H11.9153C10.5476 29.5 9.43591 28.5674 9.43591 27.4221V14.8035C9.43591 13.6272 9.59505 12.1258 10.8428 10.934L10.8751 10.903C11.4494 10.3555 11.8299 9.66092 12.0075 8.84058L13.0523 8.99923C12.8401 9.98209 12.3765 10.8198 11.6731 11.4893L11.6408 11.5202C10.8497 12.2767 10.4968 13.2886 10.4968 14.8035V27.4221C10.4968 28.0779 11.1334 28.61 11.913 28.61H14.9989V29.5V29.5Z" fill="#EF3E33"></path><path d="M18.0848 29.5H14.9989V28.61H18.0848C18.8667 28.61 19.5009 28.076 19.5009 27.4221V14.8035C19.5009 13.2886 19.1481 12.2767 18.357 11.5222L18.3247 11.4912C17.6213 10.8198 17.1577 9.98209 16.9455 8.99923L17.9903 8.84058C18.1679 9.66092 18.5484 10.3555 19.1227 10.903L19.155 10.934C20.4027 12.1258 20.5642 13.6291 20.5642 14.8035V27.4221C20.5642 28.5674 19.4525 29.5 18.0848 29.5Z" fill="#EF3E33"></path><path d="M16.7794 17.3139C15.4994 17.3458 14.8605 17.779 13.7142 17.6514C12.8701 17.5574 12.2543 17.3727 11.2902 17.3139V27.3769C11.2902 27.6271 11.5693 27.8319 11.9152 27.8319H18.0848C18.4285 27.8319 18.7098 27.6287 18.7098 27.3769V17.4466C18.2486 17.3777 17.5336 17.2954 16.7794 17.3139Z" fill="#EF3E33"></path><path d="M12.0552 14.9234C12.1646 14.9053 12.2389 14.8005 12.2212 14.6891C12.2035 14.5778 12.1005 14.5021 11.9911 14.5201C11.8817 14.5381 11.8074 14.643 11.8251 14.7544C11.8428 14.8657 11.9458 14.9414 12.0552 14.9234Z" fill="#EF3E33"></path><path d="M11.5716 15.8783C11.727 15.8783 11.853 15.7501 11.853 15.5919C11.853 15.4338 11.727 15.3055 11.5716 15.3055C11.4162 15.3055 11.2902 15.4338 11.2902 15.5919C11.2902 15.7501 11.4162 15.8783 11.5716 15.8783Z" fill="#EF3E33"></path><path d="M12.5145 16.5837C12.7313 16.5619 12.8897 16.3654 12.8683 16.1447C12.8469 15.9241 12.6538 15.7629 12.4371 15.7847C12.2203 15.8064 12.0619 16.003 12.0833 16.2236C12.1047 16.4442 12.2977 16.6054 12.5145 16.5837Z" fill="#EF3E33"></path><path d="M17.3837 7.38981H12.6141C12.3512 7.38981 12.1297 7.19497 12.0882 6.93205C12.0721 6.82876 11.9568 5.90855 12.6095 5.33812C12.8009 5.17145 12.99 5.06581 13.1561 4.97191C13.4536 4.80524 13.5205 4.7536 13.5597 4.58223C13.6035 4.39913 13.5597 4.27002 13.4674 4.01414C13.3821 3.78174 13.276 3.49066 13.2899 3.1268C13.306 2.67843 13.4536 2.2911 13.7119 2.00705C13.9264 1.77465 14.3208 1.5 14.9989 1.5C15.6585 1.5 16.0506 1.77231 16.2651 2.00001C16.5372 2.28875 16.6894 2.67843 16.7056 3.12445C16.7194 3.49066 16.6133 3.7794 16.528 4.0118C16.4357 4.26532 16.3919 4.39443 16.4357 4.57754C16.4773 4.7489 16.5441 4.80055 16.8394 4.96722C17.0054 5.06112 17.1945 5.1691 17.386 5.33342C18.0387 5.90151 17.9211 6.82407 17.9072 6.92736C17.8703 7.19497 17.6466 7.38981 17.3837 7.38981ZM13.1976 6.30762H16.8025C16.7771 6.24894 16.7448 6.19729 16.6987 6.15739C16.5903 6.06349 16.4634 5.99072 16.3273 5.9156C16.0021 5.73249 15.5593 5.48366 15.4048 4.83341C15.2826 4.32166 15.4279 3.92494 15.534 3.6362C15.5985 3.45779 15.6516 3.3146 15.6447 3.16436C15.6262 2.64087 15.2664 2.57984 14.9989 2.57984C14.5561 2.57984 14.3669 2.74886 14.3531 3.16436C14.3485 3.3146 14.3992 3.45545 14.4638 3.6362C14.5699 3.92494 14.7129 4.32166 14.593 4.83341C14.4384 5.48366 13.9956 5.73249 13.6704 5.9156C13.5366 5.99072 13.4098 6.06349 13.2991 6.15739C13.2553 6.19729 13.2207 6.24894 13.1976 6.30762Z" fill="#EF3E33"></path></svg> 