<?xml version="1.0" encoding="UTF-8"?> <svg xmlns="http://www.w3.org/2000/svg" width="30" height="31" viewBox="0 0 30 31" fill="none"><path d="M25.0891 8.28477L21.7226 4.95447L4.34692 22.1539L7.71346 25.4842C8.0827 25.8494 8.66912 25.8494 9.03836 25.4842L13.1651 21.4019L10.7216 18.9847L18.5407 11.2498L20.9841 13.667L25.1109 9.58467C25.4584 9.23015 25.4584 8.65003 25.0891 8.28477Z" fill="#EF3E33"></path><path d="M14.1316 20.4673L16.2167 20.8326C16.6511 20.9078 17.1072 20.7681 17.4112 20.4566L17.8782 19.9946L25.8276 27.8584L27.5 26.204L19.5506 18.3402L20.0176 17.8783C20.3325 17.5667 20.4737 17.1262 20.3977 16.6965L20.0285 14.6339L18.5189 13.1406L12.6221 18.974L14.1316 20.4673Z" fill="#EF3E33"></path><path d="M19.8775 3.14172L2.5 20.3322L3.3754 21.1981L20.7529 4.0077L19.8775 3.14172Z" fill="#EF3E33"></path></svg> 