<?xml version="1.0" encoding="UTF-8"?> <svg xmlns="http://www.w3.org/2000/svg" width="30" height="30" viewBox="0 0 30 30" fill="none"><g clip-path="url(#clip0)"><path fill-rule="evenodd" clip-rule="evenodd" d="M29.3894 16.0548C29.3171 15.5968 29.233 15.1374 29.1135 14.6903C29.0058 14.2852 28.8479 13.8956 28.7004 13.5029C28.5441 13.09 28.3331 12.705 28.1015 12.334C27.7209 11.724 27.5778 11.5331 27.0511 11.055C26.9729 10.9836 26.8903 10.9199 26.7959 10.8408C26.7856 10.8858 26.7767 10.9075 26.7753 10.9292C26.7561 11.2568 26.7384 11.5843 26.7207 11.9103C26.6912 12.4427 26.6012 13.0217 26.4389 13.5292C26.2383 14.1564 25.9226 15.2196 24.6996 15.9119C25.1481 15.2181 25.1569 15.1343 25.359 14.6919C25.4874 14.4094 25.6718 13.9173 25.7234 13.6115C25.8429 12.9006 25.896 12.6196 25.9344 12.1151C25.9831 11.4896 26.0067 10.8609 26.0362 10.2338C26.0376 10.1888 26.0052 10.1252 25.9683 10.0988C25.8562 10.0165 25.7382 9.942 25.6172 9.87681C25.3664 9.74176 25.3 9.71072 25.0463 9.58033C24.9135 9.51203 24.7144 9.41269 24.4488 9.32266C24.139 9.21865 23.8219 9.13794 23.5017 9.06964C23.3026 9.02773 23.4044 9.04636 23.2052 9.006C23.071 8.97961 22.9382 8.94546 22.8039 8.91752C22.7287 8.902 22.7125 8.92838 22.739 8.99979C22.8128 9.20624 22.9264 9.57567 22.9839 9.78833C23.1329 10.3347 23.2185 10.8206 23.2421 11.3157C23.2642 11.8063 23.1432 13.2514 22.5222 14.2262C22.5915 13.6829 22.6623 13.017 22.6594 12.2906C22.6579 11.8357 22.59 11.1947 22.5015 10.7492C22.4455 10.4713 22.3525 10.0864 22.2684 9.81627C22.1563 9.45615 22.0545 9.21089 21.9232 8.85853C21.8982 8.79179 21.8775 8.71107 21.789 8.69089C21.4762 8.61949 21.1635 8.54498 20.8507 8.47358C20.5232 8.39752 20.1972 8.32301 19.8697 8.2485C19.4994 8.16468 19.1306 8.08086 18.7589 8.00014C18.5169 7.94736 18.2735 7.89924 18.0301 7.84957C17.6097 7.76575 17.1907 7.67572 16.7688 7.60121C16.2952 7.51739 15.8202 7.44133 15.3452 7.36993C14.9557 7.31094 14.5663 7.24885 14.1753 7.2147C13.5602 7.16038 12.9435 7.11846 12.3269 7.09208C11.7619 7.06724 11.1969 7.09673 10.6363 7.17745C10.561 7.18832 10.4829 7.19918 10.4106 7.18676C10.1081 7.13864 9.8072 7.08276 9.50626 7.02533C9.25104 6.97566 8.9973 6.92288 8.74356 6.867C8.38508 6.78784 8.0266 6.70867 7.66812 6.6233C7.37013 6.55189 7.07361 6.47583 6.77709 6.39667C6.49532 6.32216 6.21355 6.24455 5.93326 6.16383C5.65887 6.08467 5.38447 6.00085 5.11156 5.91703C4.8829 5.84562 4.65424 5.77267 4.42853 5.69505C4.13791 5.59571 3.84876 5.49481 3.56109 5.38771C3.24245 5.26974 2.9238 5.15332 2.61105 5.02293C2.27912 4.88478 1.9472 4.74197 1.62412 4.58209C1.30105 4.42997 0.986825 4.24836 0.669651 4.07761C0.619493 4.05122 0.56786 4.02639 0.516227 4C0.511802 4.01087 0.505901 4.02018 0.5 4.03104C0.644572 4.1397 0.786194 4.25612 0.936667 4.35702C1.30547 4.60227 1.6728 4.84908 2.05046 5.07881C2.40009 5.29147 2.76005 5.4855 3.12 5.67798C3.44603 5.85338 3.77648 6.01947 4.10693 6.18401C4.36952 6.3144 4.63653 6.43548 4.90208 6.5581C5.17352 6.68384 5.44496 6.80957 5.71935 6.92754C6.0203 7.05793 6.32419 7.18055 6.62661 7.30473C6.86708 7.40408 7.10754 7.50342 7.35095 7.59656C7.68435 7.72229 8.0207 7.84336 8.35706 7.96289C8.72586 8.09328 9.09909 8.21435 9.4679 8.34474C9.51068 8.36026 9.55199 8.40373 9.57707 8.44564C9.63755 8.54964 9.67591 8.66916 9.74229 8.76695C9.88244 8.9765 10.0359 9.1783 10.1819 9.38319C10.1967 9.40337 10.204 9.42976 10.2144 9.45304C10.1908 9.46081 10.1672 9.47633 10.145 9.47322C9.68328 9.40648 9.22154 9.34439 8.76274 9.26833C8.55916 9.23418 8.35706 9.18295 8.15938 9.12086C7.85843 9.02618 7.55896 8.92528 7.26686 8.80731C7.05001 8.72038 6.84495 8.60396 6.63547 8.49841C6.5558 8.45805 6.48057 8.40993 6.40386 8.36492C6.39796 8.37423 6.39058 8.3851 6.38468 8.39441C6.47467 8.46892 6.56171 8.54653 6.65317 8.61794C7.04853 8.91907 7.46602 9.1783 7.91449 9.38009C8.27149 9.54152 8.6344 9.69209 9.00173 9.82714C9.30268 9.93735 9.61247 10.0258 9.92227 10.1081C10.1922 10.181 10.4666 10.2385 10.741 10.2897C10.9712 10.3332 11.2013 10.3642 11.3621 10.5738C11.3768 10.5924 11.4004 10.6017 11.4167 10.6188C11.4329 10.6359 11.4462 10.6591 11.4609 10.6793C11.4373 10.6917 11.4152 10.715 11.3901 10.7166C10.9048 10.7461 10.4194 10.7802 9.9326 10.7988C9.01796 10.8345 8.10332 10.819 7.1931 10.6995C6.85232 10.6545 6.5145 10.5939 6.17667 10.5334C6.05718 10.5117 5.94211 10.4651 5.82409 10.4341C5.79016 10.4248 5.75181 10.4294 5.69427 10.4248C5.71935 10.4605 5.72378 10.4729 5.73263 10.4775C5.97309 10.6141 6.20765 10.7647 6.45549 10.8811C6.84347 11.0627 7.24178 11.2211 7.6578 11.3142C8.12397 11.4182 8.59014 11.5346 9.06221 11.606C9.52543 11.6759 9.99456 11.7069 10.4637 11.7364C11.1939 11.783 11.9256 11.7612 12.6559 11.7085C12.7001 11.7054 12.7547 11.7209 12.7916 11.7473C13.1043 11.9708 13.4141 12.199 13.7239 12.4272C13.7387 12.438 13.7475 12.4566 13.7623 12.4768C13.7431 12.4892 13.7328 12.5001 13.7195 12.5048C13.5705 12.5544 13.4141 12.5901 13.271 12.6569C13.1324 12.7221 12.9996 12.7034 12.8624 12.6817C12.4449 12.615 12.0289 12.6088 11.6099 12.6817C11.07 12.7764 10.5891 13.0015 10.1554 13.3507C10.0845 13.4082 9.99456 13.4454 9.90899 13.4749C9.8013 13.5122 9.68771 13.5292 9.57854 13.5603C9.55346 13.5681 9.53576 13.5991 9.51511 13.6193C9.54166 13.6317 9.56674 13.6519 9.5933 13.6534C9.67591 13.6565 9.76 13.6534 9.84408 13.6519C9.85736 13.6519 9.87211 13.6441 9.88539 13.6395C9.95325 13.6177 10.0211 13.5882 10.0904 13.5774C10.6274 13.492 11.1659 13.4392 11.7088 13.4454C11.7397 13.4454 11.7693 13.4563 11.812 13.4641C11.5878 13.6689 11.3739 13.8521 11.1733 14.0508C10.9726 14.2495 10.7868 14.4621 10.595 14.6686C10.6023 14.6779 10.6097 14.6872 10.6171 14.6965C10.6289 14.6903 10.6407 14.6857 10.651 14.6779C10.9446 14.4575 11.2264 14.22 11.5332 14.0229C11.8224 13.8366 12.1336 13.6907 12.4375 13.5308C12.4715 13.5137 12.5187 13.5106 12.557 13.5184C12.7827 13.5618 13.0099 13.6006 13.2327 13.6612C13.7033 13.7885 14.1621 13.9546 14.6046 14.1688C15.1357 14.4264 15.6624 14.6919 16.1935 14.9449C16.5136 15.097 16.8352 15.2507 17.1686 15.3687C17.5344 15.4975 17.9106 15.603 18.2883 15.6853C18.7028 15.7769 19.1247 15.8033 19.5496 15.7583C19.703 15.7427 19.8579 15.7226 20.0099 15.735C20.2739 15.7536 20.5365 15.7862 20.8006 15.8126C20.8906 15.8219 20.9806 15.8297 21.072 15.8359C21.0779 15.8359 21.0838 15.8359 21.0897 15.8374C21.4571 15.884 22.0752 16.0128 22.3481 16.3776C22.7508 16.9116 23.161 18.0835 23.1137 19.2384C23.0651 20.3933 22.8762 20.6339 22.416 20.8108C22.0767 20.9412 21.7079 20.9816 21.2638 20.9273C21.0248 20.8776 20.7858 20.8264 20.5469 20.7689C20.4421 20.7441 20.3403 20.713 20.2371 20.6836C19.287 20.3747 18.2558 19.9649 18.095 19.8547C18.067 19.8345 18.0331 19.8081 17.9962 19.7786C17.9962 19.777 17.9962 19.7755 17.9977 19.7739C18.0316 19.4852 18.0685 19.1965 18.0847 18.9062C18.1127 18.3986 18.0921 17.8942 17.9239 17.4099C17.8133 17.0948 17.6348 16.8479 17.2984 16.7672C16.9075 16.6741 16.6095 16.8604 16.521 17.2857C16.4678 17.5418 16.4693 17.7979 16.5062 18.054C16.5387 18.276 16.577 18.498 16.6154 18.7339C16.5829 18.7075 16.5505 18.6889 16.5269 18.6625C16.4044 18.5321 16.2879 18.4033 16.1566 18.2838C15.8365 17.992 15.6963 17.8166 15.326 17.6023C15.2287 17.5465 15.0487 17.4518 14.8067 17.5434C14.3922 17.7001 14.286 18.1223 14.4542 18.5523C14.5545 18.8084 14.6976 19.0335 14.8658 19.2415C15.3924 19.8888 16.0209 20.4135 16.6832 20.8962C16.7304 20.9304 16.7614 20.9288 16.8042 20.89C16.9547 20.7581 17.4636 20.325 17.7764 20.207C17.8059 20.2707 17.592 20.6246 17.4474 20.8062C17.291 21.0018 17.176 21.1818 17.0078 21.3665C16.9857 21.3898 16.9783 21.4581 16.9945 21.4845C17.1937 21.8182 17.3899 22.1535 17.6038 22.4764C17.7631 22.717 17.9475 22.939 18.1245 23.1671C18.1408 23.1873 18.1717 23.1982 18.1983 23.2044C18.2057 23.206 18.2248 23.1765 18.2307 23.1578C18.2986 22.9374 18.3694 22.776 18.4683 22.5695C18.8312 21.8074 19.3121 21.4131 19.4862 21.4255C19.3327 21.7531 19.3018 21.8198 19.1631 22.1473C19.0849 22.3336 18.9462 22.686 18.9359 22.7139C18.809 23.0554 18.8223 23.0243 18.7102 23.3705C18.6792 23.4683 18.6659 23.5738 18.6423 23.6934C18.6586 23.7151 18.6792 23.7523 18.7072 23.7803C18.8843 23.9495 18.9861 24.0675 19.1705 24.2273C19.7089 24.6946 20.2916 25.0888 20.9289 25.3931C20.9584 25.407 20.9924 25.4101 21.0248 25.4195C21.0307 25.3822 21.0411 25.3449 21.0396 25.3077C21.0322 24.9103 21.0248 24.6589 21.0366 24.2615C21.044 24.0147 21.0381 23.7508 21.1133 23.4388C21.2402 22.9157 21.3804 22.7527 21.609 22.5726C21.5338 23.2774 21.4866 23.4931 21.5426 24.3267C21.5618 24.7458 21.6518 25.1773 21.6695 25.6088C21.6724 25.674 21.6961 25.7097 21.7551 25.7284C21.9336 25.7842 21.9306 25.7936 22.1121 25.8293C22.4543 25.896 22.801 25.9627 23.1477 25.9876C24.142 26.0559 25.1023 25.9146 25.9757 25.3713C26.2501 25.2006 26.1999 25.2177 26.461 25.0236C26.4802 25.0097 26.4891 24.9817 26.5023 24.96C26.4802 24.9476 26.4596 24.9321 26.436 24.9243C26.3887 24.9088 26.3415 24.8964 26.2929 24.8824C25.7367 24.7272 25.154 24.336 24.7439 23.9293C24.0358 23.2277 24.024 22.4547 23.9428 21.9766C24.1523 22.3693 24.4503 22.7775 24.8294 23.178C25.1909 23.5614 25.4077 23.6763 25.7692 23.8579C26.3563 24.1528 26.6646 24.2134 27.1441 24.3112C27.2075 24.3236 27.2547 24.308 27.299 24.2568C27.5763 23.9371 27.83 23.5971 28.0425 23.2277C28.2357 22.8908 28.4069 22.5385 28.5721 22.1861C28.6768 21.9657 28.7594 21.7329 28.8406 21.5016C28.9232 21.2703 28.9999 21.0359 29.0663 20.7984C29.1312 20.5671 29.1887 20.3327 29.2345 20.0953C29.2979 19.7677 29.3023 19.76 29.3554 19.4309C29.3599 19.4076 29.3495 19.3766 29.3348 19.3579C29.3274 19.3502 29.2935 19.3626 29.2728 19.3719C29.1238 19.4464 28.9778 19.5302 28.8243 19.597C28.4821 19.746 28.4187 19.8174 27.9215 19.909C27.7194 19.9462 27.3358 20.0052 27.1293 20.0192C26.138 20.0859 25.6467 19.8314 25.2351 19.6327C26.8033 19.6141 27.9068 19.1996 28.1826 19.0847C28.6001 18.9109 29.0058 18.7169 29.3938 18.4778C29.4277 18.4576 29.4587 18.408 29.4631 18.3676C29.4793 18.2248 29.4882 18.0804 29.4926 17.9361C29.5133 17.3043 29.4882 16.6756 29.3894 16.0548ZM12.4951 13.0294C12.4302 13.0698 12.3652 13.1086 12.2959 13.1412C12.2546 13.1598 12.2074 13.1769 12.1631 13.1769C11.6306 13.1707 11.1054 13.2405 10.5817 13.329C10.5271 13.3383 10.474 13.3601 10.4209 13.3694C10.384 13.3756 10.3457 13.3709 10.3073 13.3709C10.3044 13.3616 10.3029 13.3523 10.2999 13.343C10.3471 13.3119 10.3914 13.2778 10.4416 13.2514C11.0877 12.8959 11.7737 12.8152 12.4862 12.9332C12.5069 12.9363 12.5246 12.9596 12.5437 12.972C12.5275 12.9906 12.5157 13.017 12.4951 13.0294ZM14.6799 8.60552C14.6946 8.12743 14.2934 7.73936 13.8715 7.73936C13.4053 7.73936 13.0217 8.13053 13.0291 8.61328C13.0365 9.08671 13.4141 9.48254 13.8759 9.47788C14.3155 9.47322 14.6799 9.08206 14.6799 8.60552Z" fill="#EF3E33"></path></g><defs><clipPath id="clip0"><rect width="29" height="22" fill="white" transform="translate(0.5 4)"></rect></clipPath></defs></svg> 