<?xml version="1.0" encoding="UTF-8"?> <svg xmlns="http://www.w3.org/2000/svg" width="30" height="30" viewBox="0 0 30 30" fill="none"><g clip-path="url(#clip0)"><path d="M18.3584 17.1571C17.8805 17.1571 17.4823 17.54 17.4823 17.9995C17.4823 18.459 17.8805 18.842 18.3584 18.842C18.8363 18.842 19.2345 18.459 19.2345 17.9995C19.208 17.5145 18.8363 17.1571 18.3584 17.1571ZM12.5177 12.0261C12.5177 11.5666 12.1195 11.1837 11.6416 11.1837C11.1637 11.1837 10.7655 11.5666 10.7655 12.0261C10.7655 12.4856 11.1637 12.8685 11.6416 12.8685C12.1195 12.843 12.5177 12.4856 12.5177 12.0261ZM28.1814 14.5023L24.6239 12.5366L26.6947 9.11595C26.8009 8.93726 26.8009 8.70751 26.6947 8.52882C26.5885 8.35012 26.3761 8.22249 26.1637 8.22249H22.0487V4.26571C22.0487 4.06149 21.9425 3.85727 21.7301 3.75516C21.6239 3.70411 21.5177 3.67858 21.4115 3.67858C21.3053 3.67858 21.1991 3.70411 21.0929 3.75516L17.5354 5.74631L15.5442 2.32562C15.4381 2.14692 15.2257 2.01929 15.0133 2.01929C14.8009 2.01929 14.5885 2.1214 14.4823 2.32562L12.4381 5.74631L8.85398 3.75516C8.74779 3.70411 8.64159 3.67858 8.5354 3.67858C8.4292 3.67858 8.32301 3.70411 8.21681 3.75516C8.03097 3.85727 7.89823 4.06149 7.89823 4.26571V8.22249H3.78319C3.5708 8.22249 3.35841 8.3246 3.25221 8.52882C3.14602 8.70751 3.14602 8.93726 3.25221 9.11595L5.32301 12.5366L1.81858 14.5023C1.60619 14.6044 1.5 14.7831 1.5 15.0128C1.5 15.217 1.60619 15.4213 1.81858 15.5234L5.37611 17.489L3.30531 20.9097C3.19912 21.0884 3.19912 21.3181 3.30531 21.4968C3.4115 21.6755 3.62389 21.8032 3.83628 21.8032H7.95133V25.7599C7.95133 25.9641 8.05752 26.1684 8.26991 26.2705C8.37611 26.3215 8.4823 26.3471 8.5885 26.3471C8.69469 26.3471 8.80089 26.3215 8.90708 26.2705L12.4646 24.2793L14.5089 27.7C14.615 27.8787 14.8274 28.0064 15.0398 28.0064C15.2522 28.0064 15.4646 27.9042 15.5708 27.7L17.615 24.2793L21.146 26.245C21.2522 26.296 21.3584 26.3215 21.4646 26.3215C21.5708 26.3215 21.677 26.296 21.7832 26.245C21.969 26.1428 22.1018 25.9386 22.1018 25.7344V21.7776H26.2168C26.4292 21.7776 26.6416 21.6755 26.7478 21.4713C26.854 21.2926 26.854 21.0629 26.7478 20.8842L24.677 17.4635L28.2345 15.4978C28.4204 15.3957 28.5531 15.1915 28.5531 14.9873C28.5 14.7831 28.3938 14.6044 28.1814 14.5023ZM9.27876 12.0261C9.27876 10.7752 10.3407 9.72861 11.6681 9.72861C12.969 9.72861 14.0575 10.7497 14.0575 12.0261C14.0575 13.2769 12.9956 14.3236 11.6681 14.3236C10.3407 14.298 9.27876 13.2769 9.27876 12.0261ZM12.9159 20.3736L11.5089 19.6588L17.0575 9.6265L18.4646 10.3413L12.9159 20.3736ZM18.3584 20.2715C17.0575 20.2715 15.969 19.2504 15.969 17.974C15.969 16.7232 17.031 15.6765 18.3584 15.6765C19.6593 15.6765 20.7478 16.6976 20.7478 17.974C20.7212 19.2504 19.6593 20.2715 18.3584 20.2715Z" fill="#EF3E33"></path></g><defs><clipPath id="clip0"><rect width="27" height="25.9615" fill="white" transform="translate(1.5 2.01929)"></rect></clipPath></defs></svg> 